<?xml version="1.0" encoding="utf-8"?>
<!-- Generator: Adobe Illustrator 23.0.0, SVG Export Plug-In . SVG Version: 6.00 Build 0)  -->
<svg version="1.1" id="Layer_1" xmlns="http://www.w3.org/2000/svg" xmlns:xlink="http://www.w3.org/1999/xlink" x="0px" y="0px"
	 viewBox="0 0 512 512" style="enable-background:new 0 0 512 512;" xml:space="preserve">
<style type="text/css">
	.st0{fill:#85C226;}
</style>
<path d="M256,356c0,5.5-4.5,10-10,10s-10-4.5-10-10s4.5-10,10-10S256,350.5,256,356z"/>
<path d="M356,140c-8.2,0-15.9,2.5-22.2,6.8c-5.4-15.4-20.2-26.8-37.8-26.8c-11.9,0-22.7,5.3-30,13.6c-7.7-8.8-18.5-13.6-30-13.6
	c-11.9,0-22.7,5.3-30,13.6c-7.3-8.3-18.1-13.6-30-13.6c-22.1,0-40,17.9-40,40v56c-12.5,9.4-20,24.2-20,40c0,53.3,25.1,103.8,68,136
	c7.4,5.6,12,14.4,12,24v86c0,5.5,4.5,10,10,10h160c5.5,0,10-4.5,10-10v-84.4c6.5-19.8,11.5-40.3,14.8-60.8c3.4-21.1,5.2-42.7,5.2-64
	c0-12.9,0-99.7,0-112.8C396,157.9,378.1,140,356,140z M356,160c11,0,20,9,20,20v66c0,11-9,20-20,20s-20-9-20-20c0-17,0-50.4,0-66
	C336,169,345,160,356,160z M296,140c11,0,20,9,20,20v66c0,11-9,20-20,20s-20-9-20-20v-66C276,149,285,140,296,140z M236,140
	c11,0,20,9,20,20v46h-40v-46C216,149,225,140,236,140z M176,140c11,0,20,9,20,20v46h-30c-3.4,0-6.7,0.3-10,1v-47
	C156,149,165,140,176,140z M216,492v-46h140v46H216z M371.1,353.6c-6.4,39.6-15.1,57.6-15.1,62.4v10H216v-10c0-15.5-7.2-30.4-20-40
	c-37.9-28.4-60-73.1-60-120c0-16.3,13.2-30,30-30h89c-4.6,22.8-24.9,40-49,40h-20c-5.5,0-10,4.5-10,10s4.5,10,10,10h10
	c19,0,35.5,13.5,39.2,32.1c1.1,5.4,6.3,8.9,11.8,7.9c5.4-1.1,8.9-6.3,7.9-11.8c-2.7-13.8-10.2-25.7-20.4-34.3
	c13.1-5.8,24.1-15.6,31.5-27.7c7.3,8.4,18.1,13.7,30.1,13.7c8.2,0,15.9-2.5,22.3-6.8c5.5,15.6,20.3,26.8,37.7,26.8
	c7.3,0,14.1-2,20-5.4v12.1C376,313,374.4,333.5,371.1,353.6z"/>
<path d="M276,70V10c0-5.5-4.5-10-10-10s-10,4.5-10,10v60c0,5.5,4.5,10,10,10S276,75.5,276,70z"/>
<path class="st0" d="M343.3,82.7l42.4-42.4c3.9-3.9,3.9-10.2,0-14.1s-10.2-3.9-14.1,0l-42.4,42.4c-3.9,3.9-3.9,10.2,0,14.1
	C333,86.6,339.4,86.6,343.3,82.7z"/>
<path class="st0" d="M208.7,76.9c3.9-3.9,3.9-10.2,0-14.1l-42.4-42.4c-3.9-3.9-10.2-3.9-14.1,0c-3.9,3.9-3.9,10.2,0,14.1l42.4,42.4
	C198.5,80.8,204.8,80.8,208.7,76.9z"/>
<path d="M442,270.2h60c5.5,0,10-4.5,10-10s-4.5-10-10-10h-60c-5.5,0-10,4.5-10,10S436.5,270.2,442,270.2z"/>
<path class="st0" d="M429.3,337.4l42.4,42.4c3.9,3.9,10.2,3.9,14.1,0s3.9-10.2,0-14.1l-42.4-42.4c-3.9-3.9-10.2-3.9-14.1,0
	C425.4,327.2,425.4,333.5,429.3,337.4z"/>
<path class="st0" d="M435.1,202.9c3.9,3.9,10.2,3.9,14.1,0l42.4-42.4c3.9-3.9,3.9-10.2,0-14.1c-3.9-3.9-10.2-3.9-14.1,0l-42.4,42.4
	C431.2,192.6,431.2,199,435.1,202.9z"/>
<path d="M80,257.2c0-5.5-4.5-10-10-10H10c-5.5,0-10,4.5-10,10c0,5.5,4.5,10,10,10h60C75.5,267.2,80,262.7,80,257.2z"/>
<path class="st0" d="M82.7,320.4c-3.9-3.9-10.2-3.9-14.1,0l-42.4,42.4c-3.9,3.9-3.9,10.2,0,14.1s10.2,3.9,14.1,0l42.4-42.4
	C86.6,330.6,86.6,324.3,82.7,320.4z"/>
<path class="st0" d="M76.9,185.8l-42.4-42.4c-3.9-3.9-10.2-3.9-14.1,0c-3.9,3.9-3.9,10.2,0,14.1l42.4,42.4c3.9,3.9,10.2,3.9,14.1,0
	S80.8,189.7,76.9,185.8z"/>
</svg>
