<?xml version="1.0" encoding="utf-8"?>
<!-- Generator: Adobe Illustrator 22.0.1, SVG Export Plug-In . SVG Version: 6.00 Build 0)  -->
<svg version="1.1" id="Layer_1" xmlns="http://www.w3.org/2000/svg" xmlns:xlink="http://www.w3.org/1999/xlink" x="0px" y="0px"
	 viewBox="0 0 1100 734" style="enable-background:new 0 0 1100 734;" xml:space="preserve">
<style type="text/css">
	.st0{fill:#F0F1F1;}
	.st1{fill:#E5D1BD;}
	.st2{fill:#B5D6CA;}
	.st3{fill:#EACDB0;}
	.st4{fill:#1A3151;}
	.st5{fill:#FFFFFF;}
	.st6{fill:#145566;}
	.st7{fill:#2E4661;}
	.st8{fill:#9EA6AD;}
	.st9{opacity:0.2;}
	.st10{opacity:6.000000e-02;}
	.st11{opacity:0.49;fill:#808080;enable-background:new    ;}
	.st12{fill:#81C042;}
	.st13{fill:#333333;}
	.st14{fill:#EBB044;}
	.st15{fill:#9E9C9C;}
	.st16{fill:#DEDFDE;}
	.st17{fill:#F8E4B8;}
	.st18{opacity:0.25;enable-background:new    ;}
	.st19{fill:#AAB4B5;}
	.st20{fill:#5BBCB9;}
	.st21{fill:#C8D6A1;}
	.st22{fill:#858789;}
	.st23{fill:#FFD559;}
	.st24{opacity:0.5;fill:#FDBE0F;enable-background:new    ;}
	.st25{opacity:0.5;fill:#EBB044;enable-background:new    ;}
	.st26{fill:#F6F7F7;}
	.st27{fill:#EDECED;}
	.st28{fill:#909599;}
	.st29{fill:#888C8E;}
	.st30{fill:#757575;}
</style>
<title>how-different</title>
<g id="shadow">
	<path class="st0" d="M523,622.8c-27.1,0.1-54.2,0.8-81.3,3.9c-10.2,1.2-20.2,3.8-30.4,4.8c-20.4,2.1-40.5,6-61,7.8
		c-16.5,1.5-33.1,2.3-49.5,4.2c-15.9,1.8-32,1.3-47.8-1.5c-11.3-2.1-22.7-3.3-33.9-6.7c-12.5-3.8-26-6.5-39-6.4
		c-18.5,0.1-36.6,0.2-54.3,6.8c-6.2,2.3-13.8,6.2-18.6,11.1c-10.8,11.3-12.3,39.4-1.5,51.1c18.2,19.7,57,27.4,82.5,27.8
		c27.9,0.4,55.1-1.8,83.1-3c26-1.2,51.9-2.9,78-2.8c53.2,0.1,106.4,0,159.5-3.7c49.9-3.5,99.9-2.3,149.9-2.3
		c51.3,0,102.2,0.4,153.1,7.5c22.2,3.1,44.8,4.2,67.1,6.3c20,1.9,39.2,0,59-1.8c16.8-1.5,33.3-6,48.5-13.5c12-6,33.4-24.5,37.1-38.8
		c10.3-39.9-145.5-39-169.4-38.9c-26.8,0.1-53.7,1-80.5,0c-11.3-0.5-22.3-2.7-33.3-5.2s-22-1.9-33-2.9c-46.3-4.4-92.6-3.7-139-3.7
		C553.3,622.9,538.2,622.7,523,622.8z"/>
</g>
<g id="object">
	<path class="st1" d="M350.1,367.5c-0.2-0.2-0.5-0.4-0.7-0.5c-2.5-1-4.4-0.1-7-0.5c-1.2-0.1-2.5-2.9-4.1-1c-0.6,0.7-1.8,2.6-3,4.1
		c-1.8,2.2-5.4,3.9-8.5,4.7c-4.2,1.2-8.6,2-12.9,2.6c-9.3,0.9-18.7,1-28.1,0.2c0.5-15.3-7.6-29.5-20.9-37.1
		c-1.3-0.8-2.8-1.3-4.4-1.5c-1.3,0-2.6,0.4-3.8,1.1c-12.4,6.4-5.9,17.9-1,27.4c3,6,6.5,11.7,10.4,17.1c5.5,7.6,13.4,9.1,22.5,8.8
		c9.6-0.3,19.4-0.8,28.8-3.1c4.6-1.1,8.6-3,12.9-4.8s4.8,0.3,8.9-0.2c2.3-0.3,4.7-0.1,6.9-0.9c4-1.3,5.4-5.4,6.9-8.8
		c0.4-0.7,0.6-1.5,0.6-2.3c-0.2-1.4-0.9-2.6-1.9-3.6C351.3,368.6,350.7,368,350.1,367.5z"/>
	<path class="st2" d="M252.3,375c2.8,4.3,5.8,8.4,8.8,12.3c4.5,5.7,9.5,11.8,16.6,13.4c2.8,0.5,5.6,0.6,8.3,0.3
		c13.3-0.7,26.5-1.7,39.7-3c1-6.9,0.9-13.9-0.2-20.8c-0.3-1.9-0.8-4-2.3-5.3c-2.2-1.9-5.5-1.3-8.3-0.5l-13.7,3.7
		c-1.5,0.4-3.1,0.8-4.5,0c-0.8-0.6-1.5-1.3-2-2.2c-10.1-16.1-15.3-31.4-20.9-49.4c-2.5-7.9-5.1-16.1-10.6-22.3
		c-11.9-13.2-33.8-5.3-33.1,13C230.9,335.2,240.5,356.9,252.3,375z"/>
	<g id="_Group_">
		<path id="_Path_" class="st3" d="M659.1,565.5l0.7,41.9c-0.3,11.6,0.8,23.2,1.5,34.8c0.7,10.8-1.5,21.8,3.6,31.8
			c1.6,3.1,5,5.3,7.6,1.7c2-2.8,1.1-7.6,1.6-10.8c3.7-24.3,10.6-48,14-72.3C691.7,567.1,681.9,567.8,659.1,565.5z"/>
	</g>
	<polygon class="st4" points="661.5,666.8 658.8,673.8 672.1,685.5 684.2,686 688.1,679.6 671.8,665.4 	"/>
	<g id="_Group_2">
		<path id="_Path_2" class="st3" d="M629.5,565.9l-7.6,41.2c-2.7,18.4-8.7,36.4-11.3,54.8c-0.6,4.2-0.3,8.9-2.1,12.9
			s-5.1,4.1-8.1,1.4c-4-3.5-2.2-9.9-2.1-14.8c0.5-32.3-2-64.2-2.7-96.6c-0.1-0.4,0.1-0.9,0.3-1.2c0.3-0.2,0.7-0.3,1-0.2
			C600.1,563.7,629.3,566.8,629.5,565.9z"/>
	</g>
	<polygon class="st4" points="598.2,668.5 594,674.7 604.2,689.1 616,692.3 621.2,687 608.5,669.5 	"/>
	<polygon class="st4" points="702.3,592.2 696.6,532.3 693.8,493.4 684.6,461.6 634.5,453.9 572.7,464.5 569.8,476.5 581.7,587.7 
		641.3,592.2 640.5,523 649.7,565.8 649.3,592.2 	"/>
	<path class="st5" d="M585.8,344.7c-0.1,2-0.1,4-0.2,6c-0.7,41.1,1.5,82.6,1.8,124c21.2-3.3,42.6-5.1,64.1-5.5
		c5-0.1,27.5,3.4,30.7,0.4c4.3-4-0.4-3.3-0.1-8.5c0.4-6.8-2.8-12.3-1.6-20.4c1.5-9.5,4.3-18.8,6-28.2c3.3-18.9,5.3-38.1,6-57.3
		c0.6-17,0-34.7-7.4-50.1c-18.1-38-76.4-37.3-92.4,2.4C588,319.3,586.4,332,585.8,344.7z"/>
	<path class="st6" d="M651.6,291.4l-15.8,28.9c0.8,29.2,1.6,58.3,2.5,87.4l1.1,40.3c0.1,4.7,0.3,9.3,0.4,14c0.1,2.1-0.5,5.6,0.7,7.3
		c2.6,3.7,12.1,2.5,16.2,2.9c6.5,0.5,13,1,19.1,3.3c4,1.5,7.9,3.7,12.1,4.3c0.9,0.2,2,0.1,2.8-0.5c0.8-0.8,1.1-1.9,1.1-3
		c1.5-20,1.5-40.6,2.6-60.9c0.9-15.9,3-31.9,2.3-47.9c-0.8-16.4-3.3-32.7-6.5-48.8c-1.9-9.5-4-19.2-9.3-27.4
		c-5.9-9.3-14.3-13-24.7-15c-3.7-0.7-17.3-5.9-15,2.4C642.3,283,648.8,288.1,651.6,291.4z"/>
	<path class="st6" d="M617.2,294.1L633,323c-0.3,0-2,70.7-2.2,75.5c-0.5,18.2-1,36.3-1.5,54.5c-0.1,5,0.5,11-0.5,15.9
		c-1.4,6.9-8.7,5.6-14.9,6.1c-13.6,1.2-27.9,3.5-41.5,2.9c-3.9-0.2,1.2-82.2,1.2-89.9c0-27.5-5.7-58.1,8.3-83
		c4.1-7.3,11.2-18.9,19.2-22.5c7.4-3.3,17.9-3.9,26-5.8l0.4,5.2L617.2,294.1z"/>
	<path class="st4" d="M651.5,224.2c2.4,4.4,3.8,9.4,3.9,14.4c0.1,1.3,0.2,2.9,1.2,3.7s0.1,2.7,1,1.6s3.9-5.1,4-6.5
		c0.3-3.3,0.3-6.7,0-10.1c-0.3-2.9-0.9-5.9-2.8-8.1c-1.2-1.3-2.6-2.3-4.1-3.1c-2.1-1.4-4.4-2.5-6.8-3.1c-4.3-0.8-6.9,0.7-3.1,3.7
		C647.6,218.8,649.8,221.3,651.5,224.2z"/>
	<path class="st3" d="M625,281.2c0,2-0.4,4.2,1.4,5.8c0.9,0.7,2,1.1,3.2,1.3c3,0.5,6,0.3,8.9-0.6c1.2-0.3,2.3-0.9,3.2-1.7
		c0.9-0.9,1.3-2.1,1.2-3.3c0.1-1.5,0.4-3.1,0.6-4.7c0.4-3.4,0.7-6.9,0.8-10.4c5.1-0.9,11.1-2.5,12.8-7.9c0.5-1.7,0.7-3.5,0.6-5.3
		c0-7.4,0.1-14.8,0.2-22.2c0.2-2.6-0.1-5.1-0.8-7.6c-1.5-4.2-5.4-6.6-9.3-8.2c-9.8-4-21.2-3.8-30.2,1.8c-2.5,1.5-4.6,3.6-6,6.1
		c-2.1,4.1-1.9,9.1-1.5,13.8c0.3,4.3,0.6,8.7,0.9,13c0.3,5,1.1,10.7,5,13.3c2,1.4,4.7,1.6,6.5,3.5c3.1,3.1,1.6,7.9,2.5,11.7
		C625,280.1,625,280.7,625,281.2z"/>
	<path class="st4" d="M659.4,251.5c-0.1-1.4-0.7-5.4-2.7-2.9c-0.5,0.7-0.7,1.6-0.7,2.5c0,0.9-0.1,1.8-0.3,2.6
		c-0.6,1.9-2.7,2.8-4.6,2.7c-0.8,0-1.5-0.2-2.2-0.5c-0.6-0.4-1.2-0.9-1.6-1.5l-3.6-4.1c-2.1-2.4-6.2-1.4-9-1c-3.3,0.3-6.4,1.5-9,3.5
		l-0.8,0.7c-0.6,0.6-1.3,1-2,1.4c-2.5,1.2-5.5,0-7.3-2.3c-0.8-1-1.5-2.4-2.8-2.5c-1,0-2,0.5-2.4,1.5c-0.4,0.9-0.7,2-0.7,3
		c-0.3,3.8,0.3,7.7,1.9,11.1c3.6,7.3,10.5,8.2,17.5,8.1l8.3-0.2c5-0.1,10.4-0.3,14.6-3.3c3.8-2.6,6-7,6.9-11.6
		C659.4,256.3,659.6,253.9,659.4,251.5z M641,261.9c-2.5,1.6-5.7,2-8.5,1c-1.3-0.4-0.7-2.5,0.5-2.1c2.3,0.9,4.9,0.6,7-0.8
		C641.1,259.2,642.1,261.1,641,261.9z"/>
	<path class="st4" d="M660.5,211.4c0.5-1.8,0.9-3.6,1.1-5.4c-1.7,0.6-3.6,0.8-5.3,0.5c0-1.1,0-2.1,0-3.2c0-0.9-12-1.5-12.9-1.6
		c-9.1-0.8-17.4-1.5-25.6,3.4c-7,4.2-11.5,10.4-12.6,18.5c-1,7.7,1.5,17.8,6,24.3c0-2.1-1.2-6.9-0.7-8.9c0.3-2,1-3.9,1.9-5.6
		c1.9-3.5,4.7-6.4,8.1-8.5c5.4-3.2,11.5-5.3,17.7-6c5.7-0.8,12.6-1.5,18.2,0c2.7,0.7,3.1,1.4,4.8-1.3c0.3-0.5,2.6-6.1,2.3-6.1
		L660.5,211.4z"/>
	<path class="st3" d="M696.8,319c-2.6-0.2-5.2-1.1-7.3-2.7c-8.8-5.8-12.6-16.4-17.4-25.3c-2.9-5.3-5.7-13.2-10.1-17.3
		c-0.8-0.8-10.4-5.3-10.3-5.6l0.5-2.6l2.6,0.5l1.5-1l-7-3.6l4.6-7.7l10.4-0.3c3,5.8,4.6,12.5,9,17.4c1.8,2.1,4,3.9,6,5.8
		c3.5,3.3,6.5,7.1,9.6,10.7c4,4.6,10.1,8.4,12.5,14.2c1.3,3.2,3.5,10.5,2,13.8C702.3,317.8,699.5,319.1,696.8,319z"/>
	<path class="st6" d="M704.5,307.1c0.6,0,1.3,0.3,1.8,0.7c0.5,0.6,0.7,1.3,0.7,2c0.7,8.2-0.6,16.5-2,24.6
		c-1.9,11.3-4.3,23.4-12.3,31.7c-4.6,4.8-12,8-17.8,4.8c-5.1-2.7-7-9.1-7.8-14.8c-2.3-17.1,0.5-34.5,8.2-50c0.4-1.1,1.1-2,2-2.8
		c2.3-1.6,9.4,0.9,12.1,1.4L704.5,307.1z"/>
	<path class="st3" d="M573.9,271.9c3.4-2.8,4.7-7.5,3.1-11.6c-2.8-7.6-5.6-15.2-8.4-22.8c-1.6-4.3-4.6-9.3-4.6-13.8
		c-0.1-7.9,2.7-16.8,4.3-24.4c0.8-3.9,1.1-9.4,3.2-12.8c0.4-0.6,5.6-5.3,5.5-5.5l-0.8-1.6l-1.5,0.8l-1.2-0.4l3.7-3.6l-4.3-4
		l-6.6,1.8c-0.8,4.2-0.6,8.7-2.4,12.7c-0.8,1.7-1.8,3.2-2.7,4.8c-1.6,2.7-2.8,5.7-4,8.6s-3.1,5.3-4.3,8.1c-2.7,6.1-5.3,12.3-8,18.5
		l12.3,40.2c1.8,5.6,7.7,8.7,13.3,6.9C571.7,273.4,572.8,272.8,573.9,271.9z"/>
	<path class="st6" d="M603.1,275.7c-5-2.1-9.5-5.1-13.5-8.7c-1.8-1.6-9.8-16.9-8.3-17.3l-0.4,0.1l-1.1,0.4h-0.2
		c-2.4-0.2-6.7,2.1-9,2.9c-7.6,2.4-15.1,5.2-22.9,6.5c0.1,6.8,1.2,13.6,3.2,20.1c1.7,6,4.7,10.9,7,16.5c2.4,5.8,5.3,11.4,8.4,16.8
		c0.8,1.3,8.3,16.9,7.9,17c4.4-0.8,7.8-4.2,10.4-7.8c6.3-8.3,9.3-19.6,17.2-26.3c6.2-5.3,14.2-5.8,13.4-16.4
		C611.1,278.7,607,277.4,603.1,275.7z"/>
	<path class="st3" d="M472.5,248.3c-0.1,1.3-0.4,2.6-1,3.7c-1.5,3.9-2,8.2-1.4,12.3c4,0,8.1,0.6,11.9,1.9c0.8-3,1.7-6,2.5-9.1
		c0.1-0.5,0.3-0.9,0.6-1.3c0.4-0.5,1-0.8,1.6-1c3.2-1.3,6.2-3.1,8.9-5.4c0.6-0.5,1.1-1.1,1.4-1.7c0.2-0.6,0.3-1.3,0.3-2
		c0-5.5,0-10.9,0-16.4c0.3-1.2-0.5-2.4-1.8-2.7c-0.1,0-0.1,0-0.2,0l-2.8-1c-0.3-0.1-0.6-0.2-0.9-0.3c-1.3-0.6-2.9-0.6-4.2,0
		c-0.4,0.1-4.4,1-4.5,0.7c0.5,5.9-1.1,11.7-4.5,16.5c-0.2,0.6-0.8,0.8-1.4,0.6c-0.3-0.1-0.5-0.3-0.6-0.5c-1.3-1.4-2.3-3-3.1-4.7
		l-4.6,1.1c-0.4,2.5,0.4,5,2.1,6.9c0.2,0.2,0.4,0.3,0.5,0.5C472.1,246.7,472.5,247.5,472.5,248.3z"/>
	<polygon class="st2" points="487.7,256.5 468.9,253.4 449.7,306 404.4,298.2 414.2,358.7 471.9,324.1 	"/>
	<path class="st1" d="M338.5,659.8c-2.9,0.2-5.5-0.8-8.3-1.1c0.1-9.7,1.2-19.4,3.3-28.9c4.3,4.8,8,2,7.8,11
		C341.3,643.7,338,655.3,338.5,659.8z"/>
	<path class="st7" d="M329.6,653.8c-3.3-1.2-4,6.6-4,8.4c0.1,1.1,0,2.2-0.2,3.3c-0.4,1.1-1,2.2-1.8,3.1l-4.7,5.9
		c-0.8,0.9-1.4,1.8-1.8,2.9c-0.8,2.8,0.5,5.8,3.1,7.1c8.7,4.4,16.7-6.3,18.6-13.3c0.3-1.1,0.5-2.2,0.7-3.3c0.4-2.3,2.2-7.2,1.3-9.5
		c-1-2.6-4.2-0.7-6.3-1.7S331,654.3,329.6,653.8z"/>
	<path class="st4" d="M391.7,498.3c-8.1,22.2-17.5,43.9-22.9,67.1c-6.6,28.7-17.3,56.6-22.8,85.4c-3.5,0.1-7.1,0-10.6-0.5
		c-4-0.5-10.4-1.6-11.9-6c-0.7-2.3,0-5.9,0.2-8.3c0.4-7.5,0.9-15,1.5-22.5c1.6-21.2,2.6-42.6,6.5-63.4c4.1-21.9,8-44,11.6-65.9
		c1.9-11.3,4.1-22.6,7-33.7c0.7-2.9,8.3-32.5,9.8-32.2c17.5,2.7,34.3,8.7,49.5,17.8c1.5,0.9,2.9,1.9,3.5,3.5c0.4,1.5,0.2,3-0.4,4.4
		c-4.6,13.6-10.7,26.4-15.6,40C395.2,488.8,393.5,493.5,391.7,498.3z"/>
	<path class="st1" d="M393.2,658.2c2.7,1,5.5,0.8,8.2,1.4c2.8-9.3,4.6-18.9,5.4-28.6c-5.5,3.3-8.2-0.5-10.7,8.2
		C395.3,642,395.1,654.1,393.2,658.2z"/>
	<path class="st7" d="M404.3,656.7c0,5.3,4.2,11,6.5,15.8c0.9,1.4,0.7,3.2-0.5,4.3c-0.7,1.1-1.6,2-2.8,2.6c-1.2,0.4-2.5,0.4-3.7,0
		c-2.1-0.5-4.1-1-6.1-1.7c-1.2-0.2-2.1-1.1-2.5-2.2c-1.4-2.9-2.6-4.9-2.6-8.1s0.5-6.7-0.1-10c-0.3-1.6-0.7-3.6,0.7-4.5
		c1-0.7,3,0.3,4.1,0.4c2,0.3,3.9,0.2,5.8,1.3c0.4,0.2,0.7,0.5,1,0.8C404.2,655.9,404.3,656.3,404.3,656.7z"/>
	<path class="st4" d="M390.5,488.2c1.2,23.6,3.7,47.1,1.9,70.8c-2.2,29.3-0.3,59.2-3.6,88.3c3.3,1.2,6.8,2.1,10.2,2.7
		c4,0.8,10.4,1.6,13.1-2.2c1.4-1.9,1.7-5.7,2.3-7.9c1.9-7.3,3.6-14.6,5.3-21.9c4.8-20.7,10.1-41.4,12.6-62.5
		c2.6-22.2,5.4-44.3,8.5-66.4c1.6-11.4,2.8-22.8,3.4-34.3c0.2-3,1.7-33.4,0.2-33.7c-17.5-2.6-35.3-1.8-52.5,2.2
		c-1.7,0.4-3.4,1-4.3,2.3c-0.8,1.3-1.1,2.8-0.9,4.3c0.3,14.4,2.4,28.4,3,42.8C390,478,390.2,483.1,390.5,488.2z"/>
	<path class="st2" d="M380.6,298.9c-0.3,0.1-0.6,0.2-0.9,0.3c-4.7,1.8-8.8,5-12.7,8.2c-5.9,4.8-8.8,6.9-11.1,14
		c-2,6.7-3.6,13.5-4.8,20.4c-6.7,35-8,69.8-12.8,105.1c-1.3,9.6-2.3,20.9,4.8,27.5c12.6-9.8,28.4-10.4,43.7-10.4
		c10.7,0,21.2-3.5,32-2.3c10.3,1.1,19.3-1.4,29.7-0.7c2.5,0.2,5.7,0.1,6.7-2.2c-3.6-10.8-3.5-22.5-4.4-33.8
		c-2.1-29.4-11.9-57.6-15.8-86.9c-1.3-9.9-2-26.4-9.7-33.9c-8.4-8.2-27.4-8.3-38.2-6.7C384.8,297.7,382.7,298.2,380.6,298.9z"/>
	<path class="st3" d="M388.5,298.4c0.2,0.4,0.4,0.7,0.7,1c1.3,1.2,2.9,2,4.7,2.2c2.3,0.2,4.6,0.1,6.8-0.5c3-0.6,2.9-2.4,3.4-5.1
		c0.2-1.5,0.4-3,0.5-4.5c0.1-0.8-0.3-3.8,0.3-4.4c0.4-0.4,1.8-0.3,2.5-0.6c1-0.6,1.9-1.4,2.5-2.5c0.9-1.6,1.6-3.2,2.1-5
		c0.9-3,1.9-6.1,2.8-9.1c1.1-3.1,1.8-6.2,2.2-9.5c0.5-4.9-0.3-11.7-4-15.3c-3.4-3.2-8.2-4.4-12.7-5c-5.9-0.8-12,0.4-17.2,3.4
		c-2.2,1.2-4,3-5.3,5.2c-1.9,3.5-1.7,7.9-1.5,11.9c0.2,3.8,0.4,7.5,0.6,11.3c0.2,4.3,0.8,9.3,4,11.7c1.7,1.2,4,1.5,5.5,3.1
		c1.9,2,1.7,5,1.8,7.5C387.9,295.7,388.1,297.1,388.5,298.4z"/>
	<path class="st4" d="M407.3,249.7c0.2,0.4,0.4,0.7,0.5,1.1c0.7,2,0.2,4.3,0.9,6.3c1.1,3.2,4.8,5.1,5.3,8.4c0.5,2.7-1.4,5.3-1.5,8
		c-0.2,3,1.8,5.8,1.5,8.8c-0.5,3-1.7,5.8-3.4,8.2c0.5-0.6,4.8-0.4,5.9-1.1c1.7-1,1.9-1.7,2.4-3.5s0.1-3.5,0.9-5.3
		c1-2.2,2.9-3.8,3.6-6.2c1-3.2-0.8-6.6-0.6-10c0.2-5.1,4.6-9.9,3-14.7c-0.9-2.8-3.7-4.6-5.2-7.2c-1.2-1.9-1.6-4.2-2.4-6.3
		s-2.2-4.2-4.4-4.9c-1.2-0.2-2.5-0.4-3.7-0.4c-2.1-0.4-3.9-1.9-6-2.6c-3-1-8.2,2-9.9,4.5s-0.8,4.6,0.9,6.8
		C397.9,243.2,404.9,245.6,407.3,249.7z"/>
	<path class="st4" d="M367.6,234.7c-1.8,1.3-4,2.2-5.6,3.8c-3.1,3-3.8,7.7-3.9,12c-0.1,3.8-1.8,7.3-1.4,11.3c0.2,2.7,1.5,5.3,3.6,7
		c2.7,2,7,2.3,8.2,5.4c1.3,3.4-2.2,7.7-0.1,10.7c1.2,1.6,3.5,1.9,5.2,3c1.9,1.2,2.9,3.4,4,5.4s2.9,3.9,5.1,3.9
		c0.1-3.4,0.2-6.1-1.3-9.3c-0.9-1.8-3.4-5.2-1.4-7.2c1.2-1.6,4.1-2.2,4.1-4.2c-0.1-1-0.5-1.9-1.2-2.6c-2-3.2-2.3-7.2-0.9-10.7
		c1.5-3.4,4.2-6.2,7.6-7.8c3.9-1.9,3.3-2.9,4.4-6.6c1-3.5,3-4.3,6.1-5.5c2.8-1.1,3.7-1.8,4.7-4.4c0.8-1.9,1.7-4.2,0.6-6.3
		c-1-1.6-2.3-3-3.9-4.1c-3.2-2.4-6.7-4.9-10.7-4.7c-2.2,0.2-4.3,1.2-6.5,1.3c-1.5,0.1-2.9-0.2-4.4-0.3c-2.6-0.1-5.1,0.7-7.2,2.2
		c-2,1.5-2,3.1-3.1,5.2C369.3,233.2,368.5,234,367.6,234.7z"/>
	<path class="st4" d="M376.5,220.6c0.4-2.4,0.1-5.5-2.1-6.3c-1.3-0.4-2.6,0-3.9-0.2c-2.8-0.6-3.7-3.9-5.2-6.3
		c-0.2-0.4-0.5-0.7-0.9-0.9c-0.6-0.2-1.2-0.2-1.8,0c-2.8,0.3-4.8-2.4-7.4-3.4c-3.4-1.1-7.1,0.7-8.2,4.1c-0.4,1.4-0.3,2.8-0.7,4.2
		c-1.5,5.5-9.6,7.9-9.8,13.6c-0.1,3.9,3.6,7.5,2.2,11.1c-0.9,2.3-3.9,3.8-3.5,6.3c0.4,1.6,1.8,2.7,3.5,2.6c1.6-0.1,3.1-0.8,4.2-1.9
		c1.9-1.7,3.3-3.8,5.1-5.5s4.2-3.2,6.7-2.9s4.6,2.2,7,1.8c1.9-0.3,3.4-2,5.3-2.5s3.6,0.3,5.4,0.4s4.1-0.8,4.1-2.7
		c-0.1-0.4-0.1-0.9,0-1.3c0.4-1.2,2.4-1.1,2.8-2.3c-1-1.5-2.3-0.9-3-2.9C375.8,224,376.2,222.1,376.5,220.6z"/>
	<rect x="366.3" y="330.2" class="st8" width="375.4" height="260.6"/>
	<g class="st9">
		<path class="st5" d="M464.6,338.5H375v79.6C375,374.2,415.1,338.5,464.6,338.5z"/>
	</g>
	<g class="st10">
		<path d="M530.4,590.9h211.3V457.4C741.7,457.4,722.2,590.9,530.4,590.9z"/>
	</g>
	<path class="st11" d="M703.2,148.7c0-0.1,0-0.2,0-0.3l0.2,0.1L703.2,148.7z"/>
	<polygon class="st6" points="179.1,674.6 178.5,683 194.8,692.7 203.8,684.8 196,675.8 179.7,666.1 	"/>
	<polygon class="st8" points="170.7,417.7 168.9,443.4 195.1,557 178.4,671.8 194.9,676.3 243.7,538.9 245.3,497.3 235.6,411.6 	"/>
	<polygon class="st8" points="276.7,432.9 287.1,540.5 278.7,681 263.1,682.3 242.3,555.1 210,428.8 	"/>
	<polygon class="st6" points="263,680.5 263.8,688.9 281.4,695.9 289.1,686.8 279.9,679 	"/>
	<path class="st2" d="M155.7,431.2c-1.2,9.8-2.3,23,1.4,23.9c0.7,0.1,1.4,0,2.1-0.4c6.9-2.9,12-7.4,18.8-10.2c7.1-2.9,15-4,22.7-4.6
		c11.5-0.9,23.2-0.9,34.7,0c9.1,0.8,18.1,2.5,27,4.2c7.4,1.4,14.2,4.4,21.9,4.6c7.9,0.3,15.8-1.3,23-4.7c0.5-0.1,0.9-0.7,0.8-1.2
		c0-0.1-0.1-0.2-0.1-0.3c-1.1-4.5-1.8-9-4.4-12.9c-2.8-4.4-4.6-9.8-6.5-14.6c-4-10.2-7.3-20.6-9.8-31.3
		c-3.7-14.4-8.2-28.6-11.7-43.1c-2.5-10-4.6-20.2-8.3-29.9c-2.9-7.6-8.4-18.7-15.9-22.7c-2.6-1.2-5.5-1.9-8.4-2.1l-26.1-3.5
		c-3.2-0.4-6.5-0.8-9.5,0.2c-4.5,1.5-7.5,5.8-10,9.9c-11.6,18.1-19.9,38-25.5,58.8c-2.9,10.9-5.8,21.8-8.2,32.8
		c-2.7,12.3-5,24.6-6.5,37.1C156.9,422.6,156.3,426.5,155.7,431.2z"/>
	<path class="st5" d="M224.7,332c-0.4,5-1.2,9.9-2.6,14.7c-7.4,29.4-14.7,58.8-22.1,88.2l70.3,6.7c0.3-11.3,0.6-22.5,0.9-33.8
		c0.4-7.2,0.2-14.5-0.4-21.7c-1.3-11.6-5-22.8-8.8-33.9c-7-20.5-13.9-41-20.9-61.5c-0.5-2.6-2.7-4.6-5.3-4.9
		c-6.6-1.9-14-3.6-20.8-3.3c-2.3,5.9,2.8,17.2,4.5,23.2C221.9,314.3,225.1,323,224.7,332z"/>
	<path class="st3" d="M233.5,289.9l-14.5-2.1c0.1-3.9,0.6-7.8,1.4-11.6c-0.1,0.5-7.4-4.4-8-5.4c-1.7-2.9-1.5-7.4-2-10.7
		c-1-7-1.9-14.8,2.3-20.4c4.4-5.8,12.6-7.1,19.9-6.6c9.1,0.7,19,4.4,22.9,12.7c3.5,7.5-2.9,17.3-5.2,24.6c-1.1,3.6-2.7,7.7-6.3,8.9
		c-1.9,0.6-4.1,0.3-5.8,1.3C235,282.4,235.2,286.8,233.5,289.9z"/>
	<path class="st4" d="M271.1,233.9l3.2-14.9c0.5-1.8,0.7-3.7,0.4-5.6c-0.7-3.1-3.5-5.2-6.4-6.3s-6.1-1.5-9.1-2.5
		c-3.2-1.1-6.2-2.8-9.5-3c-6.4-0.4-11.8,5-18.2,5.3c-8.8,0.5-16.4-4.3-22.6,5.3c-1.2,1.8-1.6,3.9-2.7,5.8c-1.4,2.4-3.6,4.1-5.3,6.2
		c-7.9,9.1-7.2,24.2,0.2,33.4c3.6,4.5,4.9,8.3,10.3,10.1c-2-5.4,3.5-25.6,10.7-27.2c1.9-0.4,7.2,2.4,9.2,2.9c4.4,1,8.8,2.5,12.8,4.5
		c6.1,3.4,12.7,5.7,19.5,7c0.8,0.3,1.8,0.2,2.5-0.2c0.6-0.6,1-1.3,1.1-2.2C268.4,246.3,269.8,240.1,271.1,233.9z"/>
	<path class="st12" d="M524.8,126.4c-3.4-22.9,12.2-44.3,35.1-48c-0.1-0.7-0.3-1.4-0.4-2.2c-4.2-28,15.1-54.1,43.1-58.3
		c14.7-2.2,29.5,2.1,40.8,11.7c14.1-22,43.5-28.4,65.5-14.3c10.7,6.9,18.2,17.8,20.8,30.3c1-0.2,2.1-0.4,3.2-0.6
		c23.1-3.5,44.6,12.3,48.2,35.4c2.8,18.2-6.5,36.1-23,44.3c11.9,19.2,5.9,44.4-13.3,56.3c-6.2,3.8-13.3,5.9-20.6,6.1l6.5,43.3
		c0.3,1.9-2,3-2.9,2.1L694.5,198c-16.8,15.1-42.6,13.8-57.7-3c-0.6-0.6-1.1-1.3-1.6-1.9c-19.2,16.4-48,14.1-64.4-5
		c-5.6-6.5-9.2-14.5-10.5-23c-0.2-1.1-0.3-2.2-0.3-3.2C541.8,159,527.5,144.6,524.8,126.4z"/>
	<path class="st5" d="M605.1,118.9c6.2-0.9,7.6,8.7,1.4,9.6C600.4,129.4,599,119.8,605.1,118.9z"/>
	<path class="st5" d="M648.3,112.4c6.2-0.9,7.6,8.7,1.4,9.6S642.1,113.4,648.3,112.4z"/>
	<path class="st5" d="M702.3,104.4c6.2-0.9,7.6,8.7,1.4,9.6S696.1,105.3,702.3,104.4z"/>
	<path class="st13" d="M710.3,382.6l-15.8,12.6c2.7,4.1,5.3,8.3,7.8,12.5c1.3,2.1-2.2,3.8-3.4,1.7c-2.4-4-4.9-7.9-7.4-11.8
		c-5.1,4.1-10.3,8.2-15.4,12.3c-1.9,1.5-4.4-1.4-2.5-2.9l15.8-12.6c-3.1-4.7-6.3-9.3-9.5-13.8c-1.4-2,1.4-4.5,2.9-2.5
		c3.3,4.6,6.5,9.2,9.6,13.9l15.4-12.3C709.7,378.2,712.2,381.1,710.3,382.6z"/>
	<path class="st13" d="M691.4,438c-1.1-7-3-13.9-5.5-20.6c-0.6-1.5-2.4-1.2-3.3-0.3c-5,5.8-9.2,12.4-12.3,19.4
		c-0.8,1.8,1.7,3.2,3,2.1c1.8-1.4,3.4-3,5-4.6c-8.8,28.1-17.2,62.6-48.9,69.1c-28.3,5.8-44.3-25.8-56.6-46
		c-10.5-17.3-21.7-36-39.4-46.8c-18.8-11.6-42-10.8-61.1-0.3c-19.3,10.5-34.7,29.9-34.3,52.6c-12-0.7-22.4,8.1-24.6,20.1
		c-1.9,10.2,3.3,26.6,15.1,26.1c-0.2,0.8,0.3,1.7,1.2,1.9c0,0,0,0,0,0c13.4,3.5,26.1-5.1,28.8-18.6c2.4-12.3-4-26-16.7-29
		c-1.3-30.8,30.4-56.8,59.6-57.5c48.2-1.2,63.3,53.5,88.7,84.1c7.6,9.1,17.3,16.8,29.5,17.8c11.4,1,22.4-3.7,31.1-10.9
		c21.2-17.4,25.6-45.7,34.2-70.4c1.2,4.1,2.2,8.3,2.8,12.5C688.1,441.2,691.8,440.5,691.4,438z M438.9,466.5
		c0.3,0.1,0.5,0.1,0.8,0.1c0.4,0.1,0.8,0.1,1.2,0.2c23.4,5.3,15.4,44.3-7.9,40.6c1-1.3,0.2-3.7-1.7-3.1c-13.9,4.2-16.4-16.7-13-25.4
		C421.5,470.6,430,465.5,438.9,466.5z"/>
	<path class="st14" d="M419.4,493.8c-0.2-1.2-0.3-2.4-0.3-3.6c-0.3-13.9,6.9-23.1,21.1-19.8c7.3,1.7,11.6,11,11.6,17.9
		c0,4.6-1.4,9.8-5.4,12.2c-6.4,4-21.5,4.5-25.8-3.1C420.1,496.3,419.6,495,419.4,493.8z"/>
	
		<rect x="466.8" y="162.9" transform="matrix(0.8171 -0.5764 0.5764 0.8171 -57.4801 318.2911)" class="st6" width="12.3" height="173.8"/>
	
		<rect x="476.8" y="155.8" transform="matrix(0.8171 -0.5764 0.5764 0.8171 -51.5613 322.7839)" class="st12" width="12.3" height="173.8"/>
	
		<rect x="487.9" y="150.7" transform="matrix(0.8164 -0.5775 0.5775 0.8164 -46.6912 328.9663)" class="st6" width="12.3" height="174.5"/>
	
		<rect x="414.4" y="170.6" transform="matrix(0.8164 -0.5775 0.5775 0.8164 -19.9906 281.6202)" class="st15" width="37" height="3.3"/>
	
		<rect x="411.6" y="165.9" transform="matrix(0.8171 -0.5764 0.5764 0.8171 -17.9743 278.5453)" class="st16" width="36.9" height="3.3"/>
	
		<rect x="409.7" y="163.3" transform="matrix(0.8171 -0.5764 0.5764 0.8171 -16.7697 276.9484)" class="st15" width="36.9" height="3.3"/>
	<path class="st0" d="M428.1,132.9l12.2,17.3l0,0l-30.1,21.3l0,0L398,154.2c-4.8-6.9-3.2-16.4,3.7-21.2l5.3-3.7
		C413.8,124.4,423.3,126,428.1,132.9z"/>
	
		<rect x="407.8" y="160.5" transform="matrix(0.8171 -0.5764 0.5764 0.8171 -15.5546 275.3534)" class="st16" width="36.9" height="3.3"/>
	<polygon class="st17" points="548.2,303 518,324.3 559.3,350.8 	"/>
	<polygon class="st13" points="556.7,339.6 549.7,344.6 559.3,350.8 	"/>
	<path class="st18" d="M236.1,540.5c0,0,167.6,7.1,169.7,5.8s0.9-169.5-5.7-175.9C400.1,370.4,246.3,530,236.1,540.5z"/>
	<path class="st6" d="M399.9,540.5h-172c4.6-30.2,6.8-60.8,6.5-91.4c-0.3-27.3-0.1-50.9-4.1-77.1c57.3,0,112.3-3.6,169.7-3.6
		c2.4,24,4.1,50.2,4.3,78.4C404.6,478.1,403.1,509.4,399.9,540.5z"/>
	<path class="st5" d="M308.9,438.9c-1.2-11.3-5.3-24.5-16.5-29.5c-12.8-5.8-26.6,0.2-38.4,5.7c-1.6,0.8-0.2,3.1,1.4,2.4
		c1.2-0.5,2.4-1.1,3.6-1.6c2.4,25.4-2.5,50.8-0.7,76.1c-0.3,0.6-0.3,1.3,0.1,1.8c0,0.6,0.1,1.1,0.1,1.7c0.2,1.8,3,1.8,2.8,0
		c-0.1-0.6-0.1-1.2-0.1-1.8C284,485.8,311.8,465.6,308.9,438.9z M289.3,474.1c-8.2,7.4-17.8,13-28.3,16.6
		c-1.6-25.4,3.3-50.7,0.7-76.1c9.8-4.2,20.8-7.4,30.7-2.2c10.5,5.5,14,20.5,14,31.4C306.3,456.1,298.1,466.1,289.3,474.1
		L289.3,474.1z"/>
	<path class="st5" d="M330,455.2c-4.1-1.6-9.6,0.4-13.1,2.6c-5.1,3.4-8.5,8.7-9.7,14.7c-2.4,11,0.6,25.3,14,26.3
		c12.8,1,22.5-10.5,23.9-22.5C346.3,466.4,340.2,455.5,330,455.2z M342,478.5c-2,9.1-9.3,17.6-19.3,17.6c-12.3,0-14.9-13-12.8-22.8
		c0.8-4.5,3.1-8.6,6.5-11.6c2.5-2.2,5.6-3.6,8.9-4.2c0.3,0.6,0.9,1,1.6,0.8c0.8-0.2,1.6-0.3,2.4-0.3c0.3,0.1,0.6,0.3,0.9,0.5
		c0.5,0.4,1.2,0.3,1.6-0.2c0-0.1,0.1-0.1,0.1-0.2C340.2,459.7,343.7,470.4,342,478.5z"/>
	<path class="st5" d="M367.7,486.9c0-0.1-0.1-0.2-0.2-0.2c-1.6-1.6-3.8-0.6-4.6,1.1c-0.9,1-1.4,2.4-1.3,3.7c0.1,1.6,1.4,2.8,3,2.8
		c1.7-0.1,3-1.3,3.4-2.9c0.7-0.7,1-1.7,0.8-2.7C368.6,488,368.2,487.3,367.7,486.9z"/>
	<path class="st5" d="M374,424.2c-1.3-2.3-4.9-2.3-7.2-2.4c-0.8,0-1.4,0.6-1.4,1.4c-0.5,16.3-0.6,32.7-0.4,49c0,0.8,0.6,1.4,1.4,1.4
		c0.1,0,0.2,0,0.3,0c0.1,0.8,0.8,1.3,1.5,1.2c0.7-0.1,1.2-0.6,1.2-1.3c0.3-12.1,1.3-24.2,3.1-36.2c0.4-2.7,0.9-5.3,1.3-8
		C374.3,427.7,374.9,425.8,374,424.2z M368.2,424.7h0.4c-0.1,0.2-0.2,0.4-0.2,0.6c0,0.5-0.1,1-0.2,1.5
		C368.1,426,368.2,425.4,368.2,424.7L368.2,424.7z M367.9,433.9c0.2,0.1,0.4,0.2,0.7,0.2c-0.3,1.5-0.6,2.9-0.8,4
		C367.9,436.8,367.9,435.4,367.9,433.9L367.9,433.9z"/>
	<path class="st1" d="M269.1,421.5c-0.1-0.3-0.2-0.6-0.4-0.9c-1.7-2.3-4-2.5-6.3-4.3c-1-0.8-0.7-4.1-3.3-3.2
		c-0.9,0.3-3.1,1.4-5.1,2.1c-2.9,1-7.2,0.6-10.6-0.4c-4.6-1.3-9.1-2.9-13.5-4.8c-9.2-4.3-18-9.5-26.3-15.5c8.9-14,9.4-31.8,1.2-46.2
		c-0.8-1.5-1.9-2.8-3.3-3.8c-1.3-0.7-2.7-1.1-4.1-1.1c-15.1-1-15.4,13.4-16.1,25c-0.5,7.3-0.4,14.6,0.2,21.8
		c0.9,10.1,7.4,15.9,16,20.7c9.2,5.1,18.5,10.1,28.6,13.1c4.9,1.5,9.7,1.9,14.7,2.8s4.3,3,8.4,4.8c2.3,1,4.5,2.5,7,3.1
		c4.4,1,8-2,11.4-4.4c0.8-0.4,1.4-1.1,1.9-1.8c0.7-1.4,0.4-2.9,0.2-4.4C269.6,423.2,269.4,422.3,269.1,421.5z"/>
	<path class="st2" d="M173.7,374c0.2,5.6,0.7,11.1,1.4,16.3c1,7.8,2.3,16.3,8,21.8c2.3,2,4.9,3.7,7.6,5
		c12.7,6.8,25.6,13.2,38.7,19.4c4.8-5.9,8.6-12.5,11.4-19.6c0.8-2,1.5-4.2,0.8-6.2c-1-3-4.5-4.3-7.5-5.1l-14.9-4.2
		c-1.6-0.5-3.4-1-4.2-2.5c-0.5-1-0.7-2.1-0.6-3.2c-0.5-20.6,3.2-37.8,8-57.7c2.1-8.8,4.2-17.9,2.5-26.7
		c-3.7-18.9-28.6-23.8-38.1-6.3C175.9,325,172.7,350.5,173.7,374z"/>
	<path class="st1" d="M712.7,385.2c0.7-0.9,1.5-1.6,2.6-2c1.4-0.6,3.1-0.9,4.8-2c1.2-0.8,0.9-3.7,3.7-2.6c1,0.4,2.9,1.7,4.9,2.5
		c2.9,1.1,7.1,1,10.6,0.2c13.8-3,27.6-5.8,41.8-7.2c0.8,0,1.6-0.2,2.3-0.6c1.2-0.9,1.4-2.3,1.7-3.6c1.3-6.3,3.2-12.5,5.7-18.5
		c2.3-5.3,5.1-10.4,9.6-14.2s10.4-5.7,16-3.9c4.1,1.3,7.6,4.2,8.4,8.5c2.1,10.7-7.7,18.7-13.6,26.2c-5.6,7.1-10.3,13.1-16.2,19.6
		c-0.7,0.8-1.5,1.5-2.4,2c-1,0.4-2.2,0.6-3.3,0.5c-14.1-0.2-27.9-0.7-41.8,2.1c-3.8,0.8-7.3,0-10.9,1.2c-2.3,0.8-3.5,3-5.6,4.1
		c-2.1,1.2-4.5,2-6.9,2.4c-4.6,0.3-7.5-3.1-10.7-5.9c-2.5-2.2-4.4-2.9-7.7-2c-0.4,0.2-0.8,0.3-1.2,0.3c-1-0.3-1.7-1.3-1.4-2.4
		c0-0.2,0.1-0.4,0.2-0.5c0.7-1.1,1.8-1.5,3-1.9c1.3-0.5,2.6-0.7,3.9-0.8c0.6,0.1,1.1-0.1,1.6-0.4
		C712.2,385.9,712.4,385.6,712.7,385.2z"/>
	<path class="st19" d="M810.9,364.2c-8-3-16.3-4.9-24.1-8.5c2.8-6.8,11-34.3,12.4-37.6c5.3-12.6,6.4-18,13.8-24.6
		c15.7-14.2,34.4-4.8,33.7,15.3c-0.8,21.8-12.5,40.6-25.2,57.5c-0.3,0.4-0.7,0.7-1.1,0.8c-0.6,0.1-1.2,0-1.8-0.2
		C816,365.9,813.4,365.1,810.9,364.2z"/>
	<path class="st1" d="M815.9,664.6c-2.8,0.1-5.5-0.5-8.2-0.8c-1.4-27.1,1.2-55.6,2.3-82.8l20.9,1.1c-4.9,14.6-8.3,29.6-10.3,44.8
		C820.2,629.3,816.3,664.6,815.9,664.6z"/>
	<path class="st4" d="M806.9,658.5c-1.7-0.3-2.7,0.5-3.9,1.5c-0.7,0.6-1.1,1.5-1.9,1.9c-0.8,0.4-1.7,0.6-2.5,0.6
		c-5,0.5-16.6,0.3-10.4,8.7c5.6,7.6,20.5,4.6,29.1,2.5c0.6-0.1,1.1-0.3,1.6-0.7c0.4-0.5,0.7-1.1,0.9-1.7c1-3.6,2.3-8.1-2.1-9.6
		c-1.9-0.6-3.6,0.6-5.6-0.1C810.3,661.2,808.6,658.8,806.9,658.5z"/>
	<path class="st20" d="M794.4,597.3l42.6-0.8c11.5-54.7,21.6-109.7,30.4-165c0.7-4.3,1.3-8.7,0.1-12.9c-2.3-7.9-10.8-12.4-18.8-13.9
		c-12.5-2.4-35.6,0.9-42,13.9c-6.8,13.8-5.7,38.4-7.3,53.6C794.9,513.8,793.2,555.6,794.4,597.3z"/>
	<path class="st1" d="M897.2,664.6c2.8,0.1,5.5-0.5,8.2-0.8c1.4-27.1-1.2-55.6-2.3-82.8l-20.9,1.1c4.9,14.6,8.3,29.6,10.3,44.8
		C892.9,629.3,896.8,664.6,897.2,664.6z"/>
	<path class="st4" d="M906.3,658.5c1.7-0.3,2.7,0.5,3.9,1.5c0.7,0.6,1.1,1.5,1.9,1.9c0.8,0.4,1.7,0.6,2.5,0.6
		c5,0.5,16.6,0.3,10.4,8.7c-5.6,7.6-20.5,4.6-29.1,2.5c-0.6-0.1-1.1-0.3-1.6-0.7c-0.4-0.5-0.7-1.1-0.9-1.7c-1-3.6-2.3-8.1,2.1-9.6
		c1.9-0.6,3.6,0.6,5.6-0.1C902.9,661.2,904.5,658.8,906.3,658.5z"/>
	<path class="st20" d="M918.8,597.3l-42.7-0.8c-11.5-54.7-21.6-109.7-30.4-165c-0.7-4.3-1.3-8.7-0.1-12.9
		c2.3-7.9,10.8-12.4,18.8-13.9c12.5-2.4,35.5,0.9,42,13.9c6.8,13.8,5.7,38.4,7.3,53.6C918.3,513.8,919.9,555.6,918.8,597.3z"/>
	<path class="st21" d="M882.3,297.2c11.3,11,19.9,24.4,25.1,39.2c9.1,25.6,9.3,52.9,9.4,79.6c0,8.9,0,17.8,0.1,26.7
		c0,8.8-0.8,10.6-10.3,9.5c-17.6-2.1-36-5.8-52-13.6c-7.6-3.7-14.7-8.4-22.7-11.4c-11.6-4.3-23.5-2.3-35-5.1
		c5-15.1,8.5-27.9,11.1-43.4c2.6-16,5-33.4,8.9-49.1c2.3-9.5,6.6-18.3,11-27c2.9-5.8,6.1-11.8,11.1-16
		C854.1,273.7,871,286.4,882.3,297.2z"/>
	<path class="st1" d="M841.2,259.7c2.2,4.7,5.7,8.6,8.5,12.9s3.8,8,4.5,12.8c0.5,3.5,1.8,6.3,6,6.9c8,1.1,5.7-5.5,7.5-10.2
		c2.1-5.5,6.5-9.8,9.6-14.7c8.9-14.1,6.4-42-12.2-48C845,212.9,834.7,245.4,841.2,259.7z"/>
	<path class="st4" d="M873.5,246c2.3,0.1,4.8,0.3,6.5,1.8s1.5,4.9-0.7,5.3c-2,0.3-4.7-1.8-5.9-0.3c-0.7,0.9-0.1,2.2,0.5,3.3
		c2.1,4,2.7,8.7,1.8,13.1c0.8,0.8,2.2,0,2.9-0.8c3.7-4,6.5-8.7,8.4-13.8c0.7,1.3,1.8,2.3,3.1,3c-0.8-1.9-0.3-4,0.2-5.9
		c1.7-7.1,2.9-15.5-2.1-21.3c-2.7-3.1-6.7-4.9-10.8-5.7c-4.1-0.6-8.2-0.7-12.3-0.4c-1.8,0.1-3.9,0.4-4.3,2.1
		c3.9,1.6,7.8,4.6,9.8,8.2C870.9,235.8,873.2,246,873.5,246z"/>
	<path class="st4" d="M865.3,228.9l0.4,0.3c1.8,1.3,3.4,3,5.5,3.5c3.1,0.9,6.3-0.6,9.3,0.4c3.3,1.2,5.6,5.2,8,7.5
		c4.1,3.9,9,6.8,14.3,8.4c2.7,0.8,5.6,1.3,8.4,1.5c1.4,0.2,2.9,0.2,4.3,0c1.7-0.5,1.6-1.2-0.2-1.8c-5.7-1.8-7.4-9.8-7-15
		c0.3-4.1,1.8-8.5,0.2-12.4c-1.2-2.9-3.8-4.5-6.3-6.1c-2.8-1.9-5.8-1.4-8.9-2.3s-6-3.5-9.3-4.2c-3.5-0.7-7.1,0.9-10.6,1.6
		c-2.9,0.6-5.9,0.5-8.9-0.1c-2.6-0.6-5.2-1.6-7.8-1.6c-3.9,0-7.5,2.5-9.8,5.7c-3.3,4.5-5.3,12.3-4.2,18.2c-0.2-0.9,2.9-4.3,3.6-5
		c1.3-1.5,3-2.9,5-3.2C856,223.8,861.6,226.1,865.3,228.9z"/>
	<path id="_Path_3" class="st22" d="M770,503.8l-1.1,11.8c-0.3,3.8,2.2,7.2,5.6,7.5l27.8,2.5c3.4,0.3,6.5-2.5,6.8-6.4l1.1-11.8
		L770,503.8z"/>
	<path class="st23" d="M871.8,353c3.8-41.6-23.3-78.1-60.4-81.5s-70.3,27.6-74.1,69.2c-1.3,14.1,1,28.2,6.8,41.1l0,0
		c15.5,36.8,17.2,66.6,17.2,66.6l33.8,3.1l33.9,3.1c0,0,7-29,28.9-62.5l0,0C865.8,380.6,870.6,367.1,871.8,353z"/>
	<path class="st8" d="M760.4,448.5l-4.6,50.2c-0.3,2,1,3.8,3,4.1l62.7,5.7c2,0,3.6-1.5,3.7-3.5l4.6-50.2L760.4,448.5z"/>
	<path class="st24" d="M871.9,338.8c-20.5,35.9-59,90.6-110.8,109.6c0,0.1,0,0.2,0,0.2l33.9,3.1l33.9,3.1c0,0,7-29,28.9-62.5l0,0
		c8-11.7,12.8-25.2,14-39.3C872.2,348.2,872.3,343.5,871.9,338.8z"/>
	<path class="st25" d="M747.7,347.9c3.3-36.3,32.3-63.4,64.7-60.4c19,1.7,34.9,13.3,44.2,29.9c-8.3-20.6-26.2-35.6-47.9-37.6
		c-32.4-3-61.4,24.1-64.7,60.4c-1.4,14.3,1.6,28.6,8.5,41.2C748.3,370.8,746.6,359.3,747.7,347.9z"/>
	<polygon class="st26" points="781.9,450.4 782.5,353.2 792.9,364.9 804.5,348.2 812.9,366.1 825,357 808.1,452.8 811.6,453.1 
		830,348.6 814.3,360.5 805,341 792.6,359 779.1,343.9 778.4,450.1 	"/>
	<path class="st27" d="M778.5,440.4l-0.1,9.7l3.5,0.3l0.1-12C780.8,439.1,779.7,439.8,778.5,440.4z"/>
	<path class="st27" d="M815.1,413.4l-7,39.4l3.5,0.3l7.8-43.9C817.9,410.6,816.5,412,815.1,413.4z"/>
	
		<rect x="788.8" y="433.9" transform="matrix(9.063253e-02 -0.9959 0.9959 9.063253e-02 254.7492 1216.4324)" class="st28" width="9.3" height="69.6"/>
	
		<rect x="787" y="453.8" transform="matrix(9.063253e-02 -0.9959 0.9959 9.063253e-02 233.3608 1232.6653)" class="st28" width="9.3" height="69.6"/>
	<path class="st28" d="M795.4,484.2l31.3,2.8l1-10.5l-19.3-1.8C804.3,478.2,799.9,481.3,795.4,484.2z"/>
	<path class="st28" d="M828.5,467.2l1.1-12.5l-1.1-0.1c-3.6,4.2-7.2,8.1-10.8,11.6L828.5,467.2z"/>
	<path class="st28" d="M758.8,502.8l62.7,5.7c2,0,3.6-1.5,3.7-3.5l0.8-8.7l-45.2-4.1c-7.9,3.6-16.2,6.1-24.8,7.4
		C755.9,501.3,757.2,502.6,758.8,502.8z"/>
	<path class="st29" d="M808.4,474.8l19.3,1.8l0.8-9.3l-10.7-1C814.6,469.4,811.5,472.2,808.4,474.8z"/>
	<path class="st29" d="M780.6,492.2l45.2,4.1l0.8-9.3l-31.3-2.9C790.7,487.2,785.7,489.9,780.6,492.2z"/>
	<path class="st30" d="M809.5,514.7c-8.6,7.7-23.8,8.9-28.8,9.1l21.5,2c3.4,0.3,6.5-2.5,6.8-6.4L809.5,514.7z"/>
	<path class="st1" d="M826.1,407.1c0.1-0.3,0.2-0.5,0.4-0.8c1.5-2,3.5-2.2,5.5-3.7c0.9-0.7,0.6-3.6,2.8-2.8c0.8,0.3,2.7,1.3,4.4,1.9
		c2.5,0.9,6.3,0.5,9.2-0.3c4-1.1,7.9-2.5,11.7-4.1c3.8-1.8,7.6-3.8,11.3-5.9c3.1-1.8,7.9-3.8,10.2-6.5c3.9-4.6-0.6-15.7-1.1-21.4
		c-0.5-6,0-23.5,8-24c13.2-0.8,13.3,11.7,13.9,21.7c0.4,6.3,0.3,12.6-0.2,18.9c-0.8,8.8-6.5,13.8-14,18c-8,4.4-16.1,8.7-24.9,11.3
		c-4.3,1.3-8.4,1.7-12.8,2.4s-3.7,2.6-7.3,4.1c-2,0.9-3.9,2.1-6,2.6c-3.8,0.9-6.9-1.8-9.8-3.9c-0.7-0.4-1.2-0.9-1.6-1.6
		c-0.5-1.2-0.5-2.5-0.2-3.8C825.7,408.6,825.9,407.8,826.1,407.1z"/>
	<path class="st21" d="M902.2,364.6l-22.3,4.3c0.5-0.1-8.6-33.3-9.1-35.3c-1.8-7.6-3.6-15.5-2.1-23.2c3.3-16.4,11.2-20.4,21.2-3.2
		c9.4,16.3,24.1,35.7,21.2,54.2c0,0.4-0.2,0.8-0.4,1.1c-0.4,0.4-0.9,0.6-1.5,0.7L902.2,364.6z"/>
</g>
</svg>
