<?xml version="1.0" encoding="utf-8"?>
<!-- Generator: Adobe Illustrator 23.0.0, SVG Export Plug-In . SVG Version: 6.00 Build 0)  -->
<svg version="1.1" id="Capa_1" xmlns="http://www.w3.org/2000/svg" xmlns:xlink="http://www.w3.org/1999/xlink" x="0px" y="0px"
	 viewBox="0 0 512 512" style="enable-background:new 0 0 512 512;" xml:space="preserve">
<style type="text/css">
	.st0{fill:#85C226;}
</style>
<g>
	<g>
		<path class="st0" d="M316,86c-5.5,0-10,4.5-10,10s4.5,10,10,10s10-4.5,10-10S321.5,86,316,86z"/>
	</g>
</g>
<g>
	<g>
		<path class="st0" d="M201,105.4l-23.7-11.8l-11.9-23.7c-1.7-3.4-5.2-5.5-8.9-5.5c-3.8,0-7.3,2.1-8.9,5.5l-11.8,23.7l-23.7,11.8
			c-3.4,1.7-5.5,5.2-5.5,8.9s2.1,7.2,5.5,8.9l23.7,11.8l11.8,23.7c1.7,3.4,5.2,5.5,8.9,5.5h0c3.8,0,7.3-2.1,8.9-5.5l11.9-23.7
			l23.7-11.8c3.4-1.7,5.5-5.2,5.5-8.9C206.6,110.6,204.4,107.1,201,105.4z M165.4,118.7c-1.9,1-3.5,2.5-4.5,4.5l-4.4,8.8l-4.4-8.8
			c-1-1.9-2.5-3.5-4.5-4.5l-8.8-4.4l8.8-4.4c1.9-1,3.5-2.5,4.5-4.5l4.4-8.8l4.4,8.8c1,1.9,2.5,3.5,4.5,4.5l8.8,4.4L165.4,118.7z"/>
	</g>
</g>
<g>
	<g>
		<path d="M482,86h-10V56c0-16.5-13.5-30-30-30H256H70c-16.5,0-30,13.5-30,30v30H30C13.5,86,0,99.5,0,116v300c0,16.5,13.5,30,30,30
			h149.8c6.2,0,11.7,3.4,14.5,8.9c9.4,18.8,28.7,31.1,50.2,31.1h22.9c21.4,0,40.7-11.9,50.2-31c2.7-5.4,8.2-9,14.5-9H482
			c16.5,0,30-13.5,30-30V116C512,99.5,498.5,86,482,86z M266,396V46h176c5.5,0,10,4.5,10,10v320c0,5.5-4.5,10-10,10
			c-7.5,0-140.5,0-146,0C284.8,386,274.4,389.7,266,396C266,396,266,396,266,396z M256,406C256,406,256,406,256,406
			C256,406,256,406,256,406C256,406,256,406,256,406C256,406,256,406,256,406z M60,56c0-5.5,4.5-10,10-10h176v350c0,0,0,0,0,0
			c-8.4-6.3-18.8-10-30-10c-7.5,0-140.5,0-146,0c-5.5,0-10-4.5-10-10V56z M492,416c0,5.5-4.5,10-10,10H332.2
			c-13.5,0-26.2,7.6-32.4,20c-6.2,12.3-18.6,20-32.4,20h-22.9c-13.6,0-26.2-7.6-32.4-20c-6.2-12.3-18.6-20-32.4-20H30
			c-5.5,0-10-4.5-10-10V116c0-5.5,4.5-10,10-10h10v270c0,16.5,13.5,30,30,30c5.7,0,138.7,0,146,0c16.5,0,30,13.5,30,30
			c0,5.5,4.5,10,10,10c5.5,0,10-4.5,10-10c0-16.5,13.5-30,30-30c5.7,0,138.7,0,146,0c16.5,0,30-13.5,30-30V106h10
			c5.5,0,10,4.5,10,10V416z"/>
	</g>
</g>
<g>
	<g>
		<path d="M196,206h-80c-5.5,0-10,4.5-10,10s4.5,10,10,10h80c5.5,0,10-4.5,10-10S201.5,206,196,206z"/>
	</g>
</g>
<g>
	<g>
		<path d="M196,266h-80c-5.5,0-10,4.5-10,10s4.5,10,10,10h80c5.5,0,10-4.5,10-10S201.5,266,196,266z"/>
	</g>
</g>
<g>
	<g>
		<path class="st0" d="M196,326h-80c-5.5,0-10,4.5-10,10s4.5,10,10,10h80c5.5,0,10-4.5,10-10S201.5,326,196,326z"/>
	</g>
</g>
<g>
	<g>
		<path class="st0" d="M402,206h-86c-5.5,0-10,4.5-10,10s4.5,10,10,10h86c5.5,0,10-4.5,10-10S407.5,206,402,206z"/>
	</g>
</g>
<g>
	<g>
		<path d="M402,266h-86c-5.5,0-10,4.5-10,10s4.5,10,10,10h86c5.5,0,10-4.5,10-10S407.5,266,402,266z"/>
	</g>
</g>
<g>
	<g>
		<path d="M402,146h-86c-5.5,0-10,4.5-10,10s4.5,10,10,10h86c5.5,0,10-4.5,10-10S407.5,146,402,146z"/>
	</g>
</g>
<g>
	<g>
		<path class="st0" d="M402,86h-46c-5.5,0-10,4.5-10,10s4.5,10,10,10h46c5.5,0,10-4.5,10-10S407.5,86,402,86z"/>
	</g>
</g>
<g>
	<g>
		<path d="M402,326h-86c-5.5,0-10,4.5-10,10s4.5,10,10,10h86c5.5,0,10-4.5,10-10S407.5,326,402,326z"/>
	</g>
</g>
</svg>
