<?xml version="1.0" encoding="utf-8"?>
<!-- Generator: Adobe Illustrator 23.0.0, SVG Export Plug-In . SVG Version: 6.00 Build 0)  -->
<svg version="1.1" id="Layer_1" xmlns="http://www.w3.org/2000/svg" xmlns:xlink="http://www.w3.org/1999/xlink" x="0px" y="0px"
	 viewBox="0 0 511 511" style="enable-background:new 0 0 511 511;" xml:space="preserve">
<style type="text/css">
	.st0{fill:#85C226;}
</style>
<path d="M308.9,202c-1.1,0-2.3-0.2-3.3-0.6l-50-17.8l-50,17.8c-3.1,1.1-6.5,0.6-9.2-1.3c-2.7-1.9-4.2-5.1-4.1-8.4l1.5-53.1
	l-32.4-42.1c-2-2.6-2.6-6-1.6-9.2c1-3.1,3.5-5.6,6.7-6.5l50.9-15l30-43.8c1.9-2.7,4.9-4.3,8.2-4.3c3.3,0,6.4,1.6,8.2,4.3l30,43.8
	l50.9,15c3.2,0.9,5.7,3.4,6.7,6.5c1,3.1,0.4,6.6-1.6,9.2l-32.4,42.1l1.5,53.1c0.1,3.3-1.5,6.4-4.1,8.4C313,201.4,311,202,308.9,202z
	 M185.9,95.9l25.7,33.4c1.4,1.8,2.1,4.1,2.1,6.4l-1.2,42.1l39.7-14.1c2.2-0.8,4.5-0.8,6.7,0l39.7,14.1l-1.2-42.1
	c-0.1-2.3,0.7-4.5,2.1-6.4l25.7-33.4L284.7,84c-2.2-0.6-4.1-2-5.4-3.9l-23.8-34.7l-23.8,34.7c-1.3,1.9-3.2,3.3-5.4,3.9L185.9,95.9z"
	/>
<path class="st0" d="M401,110.1c-2.1,0-4.1-0.7-5.9-1.9c-2.7-1.9-4.2-5.1-4.1-8.3l0.6-22.4L378,59.8c-2-2.6-2.6-6-1.6-9.2
	c1-3.1,3.5-5.6,6.7-6.5l21.5-6.3l12.7-18.5c1.9-2.7,4.9-4.3,8.2-4.3c3.3,0,6.4,1.6,8.2,4.3l12.7,18.5l21.5,6.3
	c3.2,0.9,5.7,3.4,6.7,6.5c1,3.1,0.4,6.6-1.6,9.2l-13.6,17.7l0.6,22.4c0.1,3.3-1.4,6.4-4.1,8.3c-2.7,1.9-6.1,2.4-9.2,1.3l-21.1-7.5
	l-21.1,7.5C403.2,109.9,402.1,110.1,401,110.1z M425.4,81.5c1.1,0,2.3,0.2,3.3,0.6l10.7,3.8l-0.3-11.4c-0.1-2.3,0.7-4.5,2.1-6.4
	l6.9-9l-10.9-3.2c-2.2-0.6-4.1-2-5.4-3.9l-6.4-9.4L419,52c-1.3,1.9-3.2,3.3-5.4,3.9l-10.9,3.2l6.9,9c1.4,1.8,2.1,4.1,2.1,6.4
	l-0.3,11.4l10.7-3.8C423.2,81.7,424.3,81.5,425.4,81.5z"/>
<path class="st0" d="M110,110.1c-1.1,0-2.3-0.2-3.3-0.6L85.6,102l-21.1,7.5c-3.1,1.1-6.5,0.6-9.2-1.3c-2.7-1.9-4.2-5.1-4.1-8.3
	l0.6-22.4L38.2,59.8c-2-2.6-2.6-6-1.6-9.2c1-3.1,3.5-5.6,6.7-6.5l21.5-6.3l12.7-18.5c1.9-2.7,4.9-4.3,8.2-4.3c3.3,0,6.4,1.6,8.2,4.3
	l12.7,18.5l21.5,6.3c3.2,0.9,5.7,3.4,6.7,6.5c1,3.1,0.4,6.6-1.6,9.2l-13.6,17.7l0.6,22.4c0.1,3.3-1.4,6.4-4.1,8.4
	C114.2,109.5,112.1,110.1,110,110.1z M85.6,81.5c1.1,0,2.3,0.2,3.3,0.6l10.7,3.8l-0.3-11.4c-0.1-2.3,0.7-4.5,2.1-6.4l6.9-9
	l-10.9-3.2c-2.2-0.6-4.1-2-5.4-3.9l-6.4-9.4L79.2,52c-1.3,1.9-3.2,3.3-5.4,3.9l-10.9,3.2l6.9,9c1.4,1.8,2.1,4.1,2.1,6.4l-0.3,11.4
	L82.2,82C83.3,81.7,84.5,81.5,85.6,81.5z"/>
<path d="M255.5,427.7c-0.6,0-1.3-0.1-1.9-0.2c-0.6-0.1-1.3-0.3-1.9-0.6c-0.6-0.2-1.2-0.6-1.7-0.9c-0.5-0.4-1.1-0.8-1.5-1.2
	c-0.5-0.5-0.9-1-1.2-1.5c-0.4-0.5-0.7-1.1-0.9-1.7c-0.2-0.6-0.4-1.2-0.6-1.9c-0.1-0.6-0.2-1.3-0.2-1.9s0.1-1.3,0.2-1.9
	c0.1-0.6,0.3-1.3,0.6-1.9c0.2-0.6,0.6-1.2,0.9-1.7c0.4-0.5,0.8-1.1,1.2-1.5c0.5-0.5,1-0.9,1.5-1.2c0.5-0.4,1.1-0.7,1.7-0.9
	c0.6-0.2,1.2-0.4,1.9-0.6c1.3-0.3,2.6-0.3,3.9,0c0.6,0.1,1.3,0.3,1.9,0.6c0.6,0.2,1.2,0.6,1.7,0.9c0.5,0.4,1.1,0.8,1.5,1.2
	c0.5,0.5,0.9,1,1.2,1.5c0.4,0.5,0.7,1.1,0.9,1.7c0.2,0.6,0.4,1.2,0.6,1.9c0.1,0.6,0.2,1.3,0.2,1.9s-0.1,1.3-0.2,1.9
	c-0.1,0.6-0.3,1.3-0.6,1.9c-0.2,0.6-0.6,1.2-0.9,1.7c-0.4,0.5-0.8,1.1-1.2,1.5c-0.5,0.5-1,0.9-1.5,1.2c-0.5,0.4-1.1,0.7-1.7,0.9
	c-0.6,0.2-1.2,0.4-1.9,0.6C256.8,427.6,256.1,427.7,255.5,427.7z"/>
<path d="M255.5,394.7c-5.5,0-10-4.5-10-10V220.1c0-5.5,4.5-10,10-10c5.5,0,10,4.5,10,10v164.7C265.5,390.3,261,394.7,255.5,394.7z"
	/>
<path d="M424.9,331.1c-0.5,0-1,0-1.6-0.1c-3.3-0.5-6-2.6-7.5-5.6L398,287.7l-37.7-17.9c-3-1.4-5.1-4.2-5.6-7.5
	c-0.5-3.3,0.6-6.5,3-8.8l30.3-28.7l5.4-41.4c0.4-3.3,2.4-6.1,5.4-7.6c2.9-1.5,6.4-1.4,9.3,0.1l36.7,20l41.1-7.7
	c3.2-0.6,6.6,0.4,8.9,2.8c2.3,2.3,3.4,5.7,2.8,8.9l-7.7,41.1l20,36.7c1.6,2.9,1.6,6.4,0.1,9.3c-1.5,2.9-4.3,4.9-7.6,5.4l-41.4,5.4
	L432.2,328C430.3,330,427.6,331.1,424.9,331.1z M381.9,258l27.8,13.2c2.1,1,3.7,2.7,4.7,4.7l13.2,27.8l21.1-22.3
	c1.6-1.7,3.7-2.7,6-3l30.5-4l-14.7-27c-1.1-2-1.5-4.3-1-6.6l5.6-30.2l-30.2,5.6c-2.3,0.4-4.6,0.1-6.6-1l-27-14.7l-4,30.5
	c-0.3,2.3-1.4,4.4-3,6L381.9,258z"/>
<path d="M273.1,497.4c-0.3,0-0.7,0-1-0.1c-5.5-0.6-9.5-5.5-8.9-11c6.5-63.3,37-111.4,61.4-140.5c26.4-31.5,51.3-48.3,52.3-49
	c4.6-3.1,10.8-1.8,13.8,2.8c3.1,4.6,1.8,10.8-2.8,13.8c-0.9,0.6-23.6,15.8-48.1,45.2c-22.6,27.1-50.9,71.5-56.9,129.8
	C282.5,493.6,278.2,497.4,273.1,497.4z"/>
<path d="M86.1,331.1c-2.7,0-5.3-1.1-7.2-3.1l-28.7-30.3l-41.4-5.4c-3.3-0.4-6.1-2.4-7.6-5.4c-1.5-2.9-1.4-6.4,0.1-9.3l20-36.7
	l-7.7-41.1c-0.6-3.2,0.4-6.6,2.8-8.9c2.3-2.3,5.7-3.4,8.9-2.8l41.1,7.7l36.7-20c2.9-1.6,6.4-1.6,9.3-0.1s4.9,4.3,5.4,7.6l5.4,41.4
	l30.3,28.7c2.4,2.3,3.5,5.6,3,8.8c-0.5,3.3-2.6,6-5.6,7.5L113,287.7l-17.9,37.7c-1.4,3-4.2,5.1-7.5,5.6
	C87.1,331.1,86.6,331.1,86.1,331.1z M25.7,274.4l30.5,4c2.3,0.3,4.4,1.4,6,3l21.2,22.3l13.2-27.8c1-2.1,2.7-3.7,4.7-4.7L129,258
	l-22.3-21.2c-1.7-1.6-2.7-3.7-3-6l-4-30.5l-27,14.7c-2,1.1-4.4,1.5-6.6,1l-30.2-5.6l5.6,30.2c0.4,2.3,0.1,4.6-1,6.6L25.7,274.4z"/>
<path d="M237.9,497.4c-5.1,0-9.4-3.8-9.9-9c-6-58.3-34.3-102.7-56.9-129.8c-24.5-29.3-47.1-44.5-48.1-45.2
	c-4.6-3.1-5.8-9.3-2.8-13.8c3.1-4.6,9.3-5.8,13.8-2.8c1,0.7,26,17.5,52.3,49c24.4,29.2,54.9,77.3,61.4,140.5
	c0.6,5.5-3.4,10.4-8.9,11C238.6,497.4,238.2,497.4,237.9,497.4z"/>
<path d="M333.9,495.5c-1.4,0-2.8-0.3-4.2-0.9c-5-2.3-7.2-8.2-4.9-13.2c15.2-33.2,40.6-53.7,59.3-65.1c19.7-12,35.8-16.5,37.5-17
	c5.3-1.4,10.8,1.7,12.2,7.1c1.4,5.3-1.7,10.8-7.1,12.2c-0.1,0-14.7,4-32.3,14.7c-16.2,9.9-38.4,27.7-51.5,56.3
	C341.3,493.4,337.7,495.5,333.9,495.5z"/>
<path d="M186.6,495.5c-3.8,0-7.4-2.2-9.1-5.8c-13.1-28.6-35.3-46.4-51.5-56.3c-17.6-10.7-32.1-14.7-32.3-14.7
	c-5.3-1.4-8.5-6.9-7.1-12.2c1.4-5.3,6.9-8.5,12.2-7.1c1.8,0.5,17.8,4.9,37.5,17c18.6,11.3,44,31.8,59.3,65.1
	c2.3,5,0.1,10.9-4.9,13.2C189.4,495.2,187.9,495.5,186.6,495.5z"/>
<path class="st0" d="M464.9,368.8c-5.5,0-10-4.5-10-10v-8.3c0-5.5,4.5-10,10-10c5.5,0,10,4.5,10,10v8.3
	C474.9,364.3,470.4,368.8,464.9,368.8z"/>
<path class="st0" d="M464.9,413.8c-5.5,0-10-4.5-10-10v-8.3c0-5.5,4.5-10,10-10c5.5,0,10,4.5,10,10v8.3
	C474.9,409.4,470.4,413.8,464.9,413.8z"/>
<path class="st0" d="M491.6,387.1h-8.3c-5.5,0-10-4.5-10-10c0-5.5,4.5-10,10-10h8.3c5.5,0,10,4.5,10,10
	C501.6,382.7,497.1,387.1,491.6,387.1z"/>
<path class="st0" d="M446.6,387.1h-8.3c-5.5,0-10-4.5-10-10c0-5.5,4.5-10,10-10h8.3c5.5,0,10,4.5,10,10
	C456.5,382.7,452.1,387.1,446.6,387.1z"/>
<path class="st0" d="M46.1,368.8c-5.5,0-10-4.5-10-10v-8.3c0-5.5,4.5-10,10-10s10,4.5,10,10v8.3C56,364.3,51.6,368.8,46.1,368.8z"/>
<path class="st0" d="M46.1,413.8c-5.5,0-10-4.5-10-10v-8.3c0-5.5,4.5-10,10-10s10,4.5,10,10v8.3C56,409.4,51.6,413.8,46.1,413.8z"/>
<path class="st0" d="M72.7,387.1h-8.3c-5.5,0-10-4.5-10-10c0-5.5,4.5-10,10-10h8.3c5.5,0,10,4.5,10,10
	C82.7,382.7,78.3,387.1,72.7,387.1z"/>
<path class="st0" d="M27.7,387.1h-8.3c-5.5,0-10-4.5-10-10c0-5.5,4.5-10,10-10h8.3c5.5,0,10,4.5,10,10
	C37.7,382.7,33.2,387.1,27.7,387.1z"/>
</svg>
