<?xml version="1.0" encoding="utf-8"?>
<!-- Generator: Adobe Illustrator 23.0.0, SVG Export Plug-In . SVG Version: 6.00 Build 0)  -->
<svg version="1.1" id="Capa_1" xmlns="http://www.w3.org/2000/svg" xmlns:xlink="http://www.w3.org/1999/xlink" x="0px" y="0px"
	 viewBox="0 0 368.6 368.6" style="enable-background:new 0 0 368.6 368.6;" xml:space="preserve">
<style type="text/css">
	.st0{fill:#85C226;}
</style>
<g>
	<g>
		<path class="st0" d="M184.1,138.7c-15.6,0-28.3,12.7-28.3,28.3s12.7,28.3,28.3,28.3s28.3-12.7,28.3-28.3S199.7,138.7,184.1,138.7z
			 M184.1,180.3c-7.3,0-13.3-6-13.3-13.3s6-13.3,13.3-13.3s13.3,6,13.3,13.3S191.4,180.3,184.1,180.3z"/>
		<path class="st0" d="M184.1,107c-42.6,0-77.3,34.7-77.3,77.3s34.7,77.3,77.3,77.3s77.3-34.7,77.3-77.3S226.7,107,184.1,107z
			 M155.4,239.6v-25.4c0-3.3,2.1-6,5-7l23.6,22.5l23.6-22.5c2.9,1,5,3.8,5,7v25.4c-8.6,4.5-18.3,7-28.6,7
			C173.7,246.6,164,244.1,155.4,239.6z M227.7,228.7v-14.6c0-12.4-10.1-22.4-22.4-22.4h-3.1l-18,17.2l-18-17.2h-3.1
			c-12.4,0-22.4,10.1-22.4,22.4v14.6c-11.5-11.3-18.7-27.1-18.7-44.4c0-34.4,28-62.3,62.3-62.3s62.3,28,62.3,62.3
			C246.4,201.7,239.2,217.4,227.7,228.7z"/>
		<path d="M83.7,119.4c20.5,0,37.1-16.7,37.1-37.1s-16.7-37.1-37.1-37.1S46.5,61.7,46.5,82.2S63.2,119.4,83.7,119.4z M83.7,60.1
			c12.2,0,22.1,9.9,22.1,22.1s-9.9,22.1-22.1,22.1s-22.1-9.9-22.1-22.1S71.4,60.1,83.7,60.1z"/>
		<path d="M75.7,184.3c0-20.5-16.7-37.1-37.1-37.1S1.4,163.8,1.4,184.3s16.7,37.1,37.1,37.1S75.7,204.8,75.7,184.3z M38.6,206.4
			c-12.2,0-22.1-9.9-22.1-22.1s9.9-22.1,22.1-22.1s22.1,9.9,22.1,22.1S50.8,206.4,38.6,206.4z"/>
		<path d="M330,147.1c-20.5,0-37.1,16.7-37.1,37.1s16.7,37.1,37.1,37.1s37.1-16.7,37.1-37.1S350.5,147.1,330,147.1z M330,206.4
			c-12.2,0-22.1-9.9-22.1-22.1s9.9-22.1,22.1-22.1s22.1,9.9,22.1,22.1S342.2,206.4,330,206.4z"/>
		<path d="M184.1,74.3c20.5,0,37.1-16.7,37.1-37.1S204.5,0,184.1,0s-37.1,16.7-37.1,37.1S163.6,74.3,184.1,74.3z M184.1,15
			c12.2,0,22.1,9.9,22.1,22.1s-9.9,22.1-22.1,22.1s-22.1-9.9-22.1-22.1S171.8,15,184.1,15z"/>
		<path d="M287.5,119.6c20.5,0,37.1-16.7,37.1-37.1S308,45.3,287.5,45.3S250.4,62,250.4,82.5S267,119.6,287.5,119.6z M287.5,60.3
			c12.2,0,22.1,9.9,22.1,22.1s-9.9,22.1-22.1,22.1s-22.1-9.9-22.1-22.1S275.3,60.3,287.5,60.3z"/>
		<path d="M286,249.2c-20.5,0-37.1,16.7-37.1,37.1s16.7,37.1,37.1,37.1s37.1-16.7,37.1-37.1S306.5,249.2,286,249.2z M286,308.5
			c-12.2,0-22.1-9.9-22.1-22.1s9.9-22.1,22.1-22.1s22.1,9.9,22.1,22.1S298.2,308.5,286,308.5z"/>
		<path d="M185.6,294.3c-20.5,0-37.1,16.7-37.1,37.1s16.7,37.1,37.1,37.1s37.1-16.7,37.1-37.1S206.1,294.3,185.6,294.3z
			 M185.6,353.6c-12.2,0-22.1-9.9-22.1-22.1s9.9-22.1,22.1-22.1s22.1,9.9,22.1,22.1S197.8,353.6,185.6,353.6z"/>
		<path d="M82.1,248.9c-20.5,0-37.1,16.7-37.1,37.1s16.7,37.1,37.1,37.1s37.1-16.7,37.1-37.1S102.6,248.9,82.1,248.9z M82.1,308.2
			c-12.2,0-22.1-9.9-22.1-22.1s9.9-22.1,22.1-22.1s22.1,9.9,22.1,22.1S94.3,308.2,82.1,308.2z"/>
	</g>
</g>
</svg>
