<?xml version="1.0" encoding="utf-8"?>
<!-- Generator: Adobe Illustrator 23.0.0, SVG Export Plug-In . SVG Version: 6.00 Build 0)  -->
<svg version="1.1" id="Layer_1" xmlns="http://www.w3.org/2000/svg" xmlns:xlink="http://www.w3.org/1999/xlink" x="0px" y="0px"
	 viewBox="0 0 416 416" style="enable-background:new 0 0 416 416;" xml:space="preserve">
<style type="text/css">
	.st0{fill:#85C226;}
</style>
<path d="M180,416h144c4.4,0,8-3.6,8-8V306c6.5-11.8,12.4-21.6,17.6-30.3c19.6-32.6,30.4-50.6,30.4-104V152C380,68.1,311.9,0,228,0
	C144.1,0,76,68.1,76,152v6.3l-39.3,86.4c-0.9,2-1,4.3-0.1,6.3s2.4,3.6,4.4,4.4l35,14V368c0,4.4,3.6,8,8,8h56c0.5,0,1.1-0.1,1.6-0.2
	l30.4-6.1V408C172,412.4,175.6,416,180,416z M139.2,360H92v-96c0-3.3-2-6.2-5-7.4l-32.2-12.9l36.5-80.4c0.5-1,0.7-2.2,0.7-3.3v-8
	c0-75.1,60.9-136,136-136s136,60.9,136,136v19.8c0,49-8.8,63.6-28.1,95.8c-5.5,9.2-11.8,19.7-18.9,32.6c-0.6,1.2-1,2.5-1,3.8v96H188
	v-36.2l45.1-37.6c1-0.9,1.8-2,2.3-3.2l16-40l-14.9-5.9l-15.2,38.1l-44.9,37.4L139.2,360z"/>
<path class="st0" d="M281.8,161.2c10.3-9.5,13.1-24.7,6.9-37.2l-1.1-2.1c-4.8-9.6-14.1-16.1-24.8-17.2c-10.7-1.1-21.2,3.2-27.9,11.6
	l-7.3,9.1l-7.3-9.1c-6.7-8.4-17.2-12.8-27.9-11.6c-10.7,1.1-20,7.6-24.8,17.2l-1.1,2.1c-6.2,12.6-3.4,27.7,6.9,37.2l48.7,44.7
	c3.1,2.8,7.8,2.8,10.8,0L281.8,161.2z M184.3,149.4c-5.1-4.7-6.4-12.1-3.4-18.3l1.1-2.1c2.3-4.7,6.9-7.9,12.2-8.5s10.4,1.6,13.7,5.7
	l13.6,16.9c1.6,1.8,3.8,2.9,6.2,2.9s4.7-1,6.3-2.9l13.6-16.9c3.3-4.1,8.4-6.3,13.7-5.7c5.2,0.6,9.8,3.7,12.2,8.5l1.1,2.1
	c3.1,6.2,1.7,13.6-3.4,18.3l-43.3,39.7L184.3,149.4z"/>
<path class="st0" d="M328,152c0-55.2-44.8-100-100-100c-55.2,0-100,44.8-100,100s44.8,100,100,100C283.2,251.9,327.9,207.2,328,152z
	 M144,152c0-46.4,37.6-84,84-84s84,37.6,84,84s-37.6,84-84,84C181.6,235.9,144.1,198.4,144,152z"/>
</svg>
