<?xml version="1.0" encoding="utf-8"?>
<!-- Generator: Adobe Illustrator 22.0.1, SVG Export Plug-In . SVG Version: 6.00 Build 0)  -->
<svg version="1.1" id="Layer_1" xmlns="http://www.w3.org/2000/svg" xmlns:xlink="http://www.w3.org/1999/xlink" x="0px" y="0px"
	 viewBox="0 0 500 500" style="enable-background:new 0 0 500 500;" xml:space="preserve">
<style type="text/css">
	.st0{fill:#E4ECED;}
	.st1{fill:#019147;}
	.st2{clip-path:url(#SVGID_2_);}
	.st3{fill:#905531;}
	.st4{fill:#83C241;}
</style>
<title>about-icon</title>
<g id="OBJECTS">
	<circle class="st0" cx="372.8" cy="69.6" r="28.5"/>
	<path class="st0" d="M453.8,167.7c0,15.8-12.8,28.6-28.5,28.6c-15.8,0-28.6-12.8-28.6-28.5c0-15.8,12.8-28.6,28.5-28.6c0,0,0,0,0,0
		C441,139.2,453.8,152,453.8,167.7z"/>
	<path class="st0" d="M457.5,281.9c0,15.8-12.8,28.5-28.6,28.5s-28.5-12.8-28.5-28.6s12.8-28.5,28.6-28.5c0,0,0,0,0,0
		C444.8,253.4,457.5,266.2,457.5,281.9z"/>
	<circle class="st0" cx="394.6" cy="390.4" r="28.5"/>
	<path class="st0" d="M97.3,69.6c0,15.8,12.8,28.6,28.6,28.6s28.5-12.8,28.5-28.6s-12.8-28.5-28.5-28.5c0,0,0,0,0,0
		C110.1,41.1,97.3,53.9,97.3,69.6z"/>
	<path class="st0" d="M44.8,167.7c0,15.8,12.8,28.6,28.5,28.6c15.8,0,28.6-12.8,28.6-28.5c0-15.8-12.8-28.6-28.5-28.6c0,0,0,0,0,0
		C57.6,139.2,44.8,152,44.8,167.7z"/>
	<path class="st0" d="M41.1,281.9c0,15.8,12.8,28.5,28.6,28.5s28.5-12.8,28.5-28.5s-12.8-28.6-28.5-28.6h0
		C53.9,253.4,41.1,266.2,41.1,281.9z"/>
	<circle class="st0" cx="104" cy="390.4" r="28.5"/>
	<path class="st1" d="M387.9,55.6c0-1-0.8-1.9-1.9-1.9h-3.7v-4.3h-2.5v4.3h-5.9v-4.3h-2.5v4.3h-5.9v-4.3h-2.5v4.3h-3.8
		c-1,0-1.9,0.8-1.9,1.9c0,0,0,0,0,0v3.7H353v2.5h4.2v5.9H353v2.5h4.2v5.9H353v2.5h4.2v3.8c0,1,0.8,1.9,1.9,1.9h3.8v4.3h2.5v-4.3h5.9
		v4.3h2.5v-4.3h5.9v4.3h2.5v-4.3h3.7c1,0,1.9-0.8,1.9-1.9v-3.8h4.3v-2.5h-4.3v-5.9h4.3v-2.5h-4.3v-5.9h4.3v-2.5h-4.3L387.9,55.6z
		 M384.6,79.6c0,0.8-0.7,1.5-1.5,1.5l0,0H362c-0.8,0-1.5-0.7-1.5-1.5c0,0,0,0,0,0V58.4c0-0.8,0.7-1.5,1.5-1.5l0,0h21.2
		c0.8,0,1.5,0.7,1.5,1.5c0,0,0,0,0,0L384.6,79.6z M379.8,69c0,4-3.2,7.2-7.2,7.2c-4,0-7.2-3.2-7.2-7.2c0-4,3.2-7.2,7.2-7.2
		c0,0,0,0,0,0C376.5,61.8,379.7,65,379.8,69z"/>
	<path class="st1" d="M407.7,181.5v-27.8c0-2.1,1.7-3.8,3.8-3.8l0,0h8.2v3.8h-8.2v27.8h8.2v3.8h-8.2
		C409.4,185.3,407.7,183.6,407.7,181.5L407.7,181.5z M439.3,149.9H431v3.8h8.2v27.8H431v3.8h8.2c2.1,0,3.8-1.7,3.8-3.8l0,0v-27.8
		C443,151.6,441.3,150,439.3,149.9z M418.7,167.6c0-3.7,3-6.6,6.6-6.6c3.7,0,6.6,3,6.6,6.6c0,3.7-3,6.6-6.6,6.6
		S418.7,171.3,418.7,167.6L418.7,167.6z M422.5,167.6c0,1.6,1.3,2.8,2.8,2.8c1.6,0,2.8-1.3,2.8-2.8c0-1.6-1.3-2.8-2.8-2.8l0,0
		C423.8,164.8,422.5,166,422.5,167.6C422.5,167.6,422.5,167.6,422.5,167.6L422.5,167.6z M425.4,159.5c0.3,0,0.6-0.3,0.6-0.6
		c0,0,0,0,0,0v-2.7c0-0.4-0.2-0.7-0.6-0.7c-0.4,0-0.7,0.2-0.7,0.6c0,0.1,0,0.1,0,0.2v2.7C424.7,159.2,425,159.5,425.4,159.5
		L425.4,159.5z M416.9,159c-0.2,0.2-0.3,0.6,0,0.9c0,0,0,0,0,0l1.9,1.9c0.2,0.2,0.6,0.3,0.9,0c0,0,0,0,0,0c0.2-0.2,0.2-0.6,0-0.9
		l-1.9-1.9C417.6,158.8,417.2,158.8,416.9,159C416.9,159,416.9,159,416.9,159L416.9,159z M417.4,167.4c0-0.3-0.3-0.6-0.6-0.6l0,0
		H414c-0.3,0-0.6,0.3-0.6,0.6c0,0,0,0,0,0c0,0.3,0.3,0.6,0.6,0.6h2.7C417,168.1,417.3,167.8,417.4,167.4
		C417.3,167.5,417.4,167.4,417.4,167.4L417.4,167.4z M417.4,176c0.2,0,0.3-0.1,0.5-0.2l1.9-1.9c0.3-0.2,0.3-0.6,0-0.9
		s-0.6-0.3-0.9,0c0,0,0,0,0,0l-1.9,1.9c-0.2,0.2-0.3,0.6,0,0.9c0,0,0,0,0,0C417,176,417.2,176.1,417.4,176L417.4,176z M424.7,176
		v2.7c0,0.3,0.3,0.6,0.6,0.6s0.6-0.3,0.6-0.6V176c0-0.3-0.3-0.6-0.6-0.6S424.7,175.7,424.7,176z M431,173.1c-0.2,0.2-0.3,0.6,0,0.9
		c0,0,0,0,0,0l1.9,1.9c0.1,0.1,0.3,0.2,0.4,0.2c0.2,0,0.3-0.1,0.5-0.2c0.2-0.2,0.3-0.6,0-0.9c0,0,0,0,0,0l-1.9-1.9
		C431.6,172.9,431.2,172.9,431,173.1L431,173.1z M436.6,168.1c0.4,0,0.6-0.4,0.6-0.7c0-0.3-0.3-0.5-0.6-0.6H434
		c-0.4,0-0.6,0.4-0.6,0.7c0,0.3,0.3,0.5,0.6,0.6H436.6z M431.5,162c0.2,0,0.3-0.1,0.4-0.2l1.9-1.9c0.2-0.2,0.3-0.6,0-0.9
		c-0.2-0.2-0.6-0.3-0.9,0l-1.9,1.9c-0.2,0.2-0.3,0.6,0,0.9c0,0,0,0,0,0C431.1,161.9,431.3,162,431.5,162L431.5,162z"/>
	<path class="st1" d="M436.7,262.4c-4.1,0-7.4,3.3-7.4,7.4c0,0,0,0,0,0c0,1.2,0.3,2.3,0.8,3.4l-2.6,2.7c-3.8-1.5-8.1,0.4-9.5,4.3
		c-1.1,2.8-0.3,6,1.9,8l-2.5,7.1H415v4.2h19.6v-4.2h-2.2l-2.5-7.1c2.5-2.4,3.1-6.2,1.3-9.1l2.4-2.5c0.9,0.4,1.8,0.6,2.8,0.7l1.8,7.6
		l1.1-0.3l0.5,2.1l2.6-0.6l-0.5-2.1l1-0.2l-1.8-7.9c3.3-2.4,4-7,1.6-10.3C441.3,263.5,439,262.4,436.7,262.4L436.7,262.4z
		 M424.9,286.1c-1.9,0-3.4-1.5-3.4-3.4s1.5-3.4,3.4-3.4c1.9,0,3.4,1.5,3.4,3.4C428.3,284.6,426.7,286.1,424.9,286.1
		C424.9,286.1,424.9,286.1,424.9,286.1L424.9,286.1z M436.7,273.1c-1.9,0-3.4-1.5-3.4-3.4s1.5-3.4,3.4-3.4c1.9,0,3.4,1.5,3.4,3.4
		C440.1,271.6,438.6,273.1,436.7,273.1C436.7,273.1,436.7,273.1,436.7,273.1L436.7,273.1z"/>
	<path class="st1" d="M406.6,386.6h-8.1v-8.1c0-0.9-0.7-1.7-1.6-1.7c0,0,0,0,0,0h-19.5c-0.9,0-1.7,0.7-1.7,1.6c0,0,0,0,0,0V398
		c0,0.9,0.7,1.6,1.6,1.6h8.1v8.1c0,0.9,0.7,1.7,1.6,1.7c0,0,0,0,0,0h19.5c0.9,0,1.6-0.7,1.6-1.6v-19.5
		C408.3,387.3,407.6,386.6,406.6,386.6z M379,396.4v-16.2h16.2v6.5h-8.1c-0.9,0-1.7,0.7-1.7,1.6c0,0,0,0,0,0v8.1L379,396.4z
		 M395.2,389.9v6.5h-6.5v-6.5H395.2z M405,406.1h-16.2v-6.5h8.1c0.9,0,1.6-0.7,1.6-1.6v-8.1h6.4V406.1z M410.2,373.3h-8.3
		c-0.9,0-1.7,0.7-1.7,1.6c0,0,0,0,0,0v8.3c0,0.9,0.7,1.6,1.6,1.6h8.3c0.9,0,1.7-0.7,1.7-1.6c0,0,0,0,0,0V375
		C411.9,374.1,411.2,373.3,410.2,373.3C410.2,373.3,410.2,373.3,410.2,373.3L410.2,373.3z M408.6,381.6h-5v-5h5V381.6z"/>
	<path class="st1" d="M84.7,386.7v7.9h4.5c0.3,1.3,0.9,2.6,1.5,3.7l-3.2,3.2l5.6,5.6l3.2-3.2c1.2,0.7,2.4,1.2,3.8,1.5v4.5h7.9v-4.5
		c1.3-0.3,2.6-0.9,3.7-1.5l3.2,3.2l5.6-5.6l-3.2-3.2c0.7-1.2,1.2-2.4,1.5-3.7h4.5v-7.9h-4.5c-0.4-1.3-0.9-2.5-1.6-3.7l3.2-3.2
		l-5.6-5.6l-3.2,3.2c-1.2-0.7-2.4-1.2-3.7-1.5v-4.6H100v4.6c-1.3,0.3-2.5,0.9-3.7,1.5l-3.2-3.2l-5.6,5.6l3.2,3.2
		c-0.7,1.2-1.2,2.4-1.6,3.7L84.7,386.7z M104,380.3c5.7,0,10.4,4.7,10.4,10.4c0,5.7-4.7,10.4-10.4,10.4s-10.4-4.7-10.4-10.4
		c0,0,0,0,0,0C93.6,384.9,98.2,380.3,104,380.3C104,380.3,104,380.3,104,380.3L104,380.3z M100.1,393.1h3.6l0.6,1.5h2.2l-3.4-8.2
		h-2.1l-3.5,8.2h2.1L100.1,393.1z M101.9,388.5l1.2,3h-2.4L101.9,388.5z M107.2,388.3h2v6.3h-2V388.3z M107.2,386.5
		c0-0.6,0.5-1.1,1.1-1.1c0.6,0,1.1,0.5,1.1,1.1c0,0.6-0.5,1.1-1.1,1.1c-0.5,0.1-1-0.3-1.1-0.9C107.2,386.6,107.2,386.6,107.2,386.5
		L107.2,386.5z"/>
	<path class="st1" d="M137.9,53.3c-1.7,0-3.1,1.4-3.1,3.1v0c0,0.1,0,0.3,0,0.4l-7.3,4.7l0,0l-0.1,0.1l-0.1,0.1l0,0v0
		c0,0-0.1,0.1-0.1,0.1l-0.1,0.1l-0.1,0.1c0,0,0,0.1,0,0.1l0,0l-3,9.4l-8.3-9.2c0.2-0.4,0.3-0.8,0.3-1.2c0-1.7-1.4-3.1-3.1-3.1
		s-3.1,1.4-3.1,3.1s1.4,3.1,3.1,3.1c0.2,0,0.5,0,0.7-0.1l8.8,9.8l-7.7,4.5c-1.4-0.9-3.4-0.5-4.3,0.9c-0.9,1.4-0.5,3.4,0.9,4.3
		c1.4,0.9,3.4,0.5,4.3-0.9c0.3-0.5,0.5-1.1,0.5-1.7c0-0.1,0-0.2,0-0.2l8.2-4.8l5.6,6.3c-0.1,0.3-0.2,0.7-0.2,1.1
		c0,1.7,1.4,3.1,3.1,3.1c1.7,0,3.1-1.4,3.1-3.1s-1.4-3.1-3.1-3.1c0,0,0,0,0,0c-0.3,0-0.6,0.1-0.9,0.2l-5.9-6.5l2.8-8.8l4.4,4.3
		c-0.1,0.3-0.2,0.7-0.2,1c0,1.7,1.4,3.1,3.1,3.1s3.1-1.4,3.1-3.1s-1.4-3.1-3.1-3.1c-0.3,0-0.7,0.1-1,0.2l-4.8-4.7l5.9-3.8
		c0.5,0.3,1,0.4,1.5,0.4c1.7,0,3.1-1.4,3.1-3.1C141,54.7,139.6,53.3,137.9,53.3L137.9,53.3z"/>
	<path class="st1" d="M87.9,161.8L87.9,161.8c0-5.3-4.2-9.5-9.5-9.6c-2.3,0-4.6,0.8-6.3,2.4c-5-1.7-10.4,0.9-12.1,5.9
		c-0.1,0.4-0.2,0.8-0.3,1.2c-4.9,2-7.2,7.6-5.2,12.5c2,4.9,7.6,7.2,12.5,5.2c0.8-0.3,1.6-0.8,2.3-1.4c2.9,2,6.6,2.2,9.7,0.6
		c4.5,2.7,10.4,1.2,13.1-3.3c2.7-4.5,1.2-10.4-3.3-13.1C88.4,162.1,88.2,161.9,87.9,161.8L87.9,161.8z M66.5,171.3
		c-1.3,0-2.3-1-2.3-2.3s1-2.3,2.3-2.3c1.3,0,2.3,1,2.3,2.3C68.8,170.3,67.8,171.3,66.5,171.3C66.5,171.3,66.5,171.3,66.5,171.3
		L66.5,171.3z M73.9,171.3c-1.3,0-2.3-1-2.3-2.3s1-2.3,2.3-2.3c1.3,0,2.3,1,2.3,2.3C76.3,170.3,75.3,171.3,73.9,171.3
		C74,171.3,74,171.3,73.9,171.3L73.9,171.3z M81.4,171.3c-1.3,0-2.3-1-2.3-2.3s1-2.3,2.3-2.3c1.3,0,2.3,1,2.3,2.3
		C83.7,170.3,82.7,171.3,81.4,171.3C81.4,171.3,81.4,171.3,81.4,171.3L81.4,171.3z"/>
	<path class="st1" d="M69.7,283.1c-1.4,0-2.6,1.1-2.6,2.6c0,1.4,1.1,2.6,2.6,2.6c1.4,0,2.6-1.1,2.6-2.6c0,0,0,0,0,0
		C72.2,284.2,71.1,283.1,69.7,283.1z"/>
	<path class="st1" d="M81.9,272.5c0-6.1-4.6-11.3-10.7-12.1v3.8c4,0.7,7,4.2,7,8.4v0.9h-17v-0.9c0-4.1,3-7.6,7-8.4v-3.8
		c-6.1,0.8-10.7,6-10.7,12.1v0.9H54v24.3h31.3v-24.3h-3.4L81.9,272.5z M77.2,287.2h-1.8c-0.1,0.5-0.3,1-0.6,1.5l1.3,1.3l-2.2,2.2
		l-1.2-1.2c-0.5,0.3-1,0.5-1.5,0.6v1.8h-3.1v-1.8c-0.5-0.1-1-0.3-1.5-0.6l-1.2,1.2l-2.2-2.2l1.2-1.3c-0.3-0.5-0.5-1-0.6-1.5h-1.8
		v-3.1h1.8c0.1-0.5,0.3-1,0.6-1.5l-1.3-1.3l2.2-2.2l1.3,1.3c0.5-0.3,0.9-0.5,1.4-0.6V278h3.1v1.8c0.5,0.1,1,0.3,1.4,0.6l1.3-1.3
		l2.2,2.2l-1.3,1.3c0.3,0.5,0.5,0.9,0.6,1.5h1.8L77.2,287.2z"/>
	<path class="st0" d="M52.2,96.6c-0.2,0-0.5-0.1-0.7-0.3c-0.4-0.4-0.4-1-0.1-1.4l22.4-25c0.4-0.4,1-0.4,1.4-0.1
		c0.4,0.4,0.4,1,0.1,1.4l-22.4,25C52.7,96.4,52.5,96.6,52.2,96.6z"/>
	<path class="st0" d="M77.7,70.5c0,1.7-1.3,3.1-3,3.1c-1.7,0-3.1-1.3-3.1-3c0-1.7,1.3-3.1,3-3.1c0,0,0,0,0.1,0
		C76.3,67.5,77.6,68.8,77.7,70.5z"/>
	<path class="st0" d="M55.2,95.6c0,1.7-1.4,3.1-3.1,3.1c-1.7,0-3.1-1.4-3.1-3.1c0-1.7,1.4-3.1,3.1-3.1l0,0
		C53.8,92.6,55.2,93.9,55.2,95.6z"/>
	<path class="st0" d="M41.6,367c-0.2,0-0.5-0.1-0.7-0.3c-0.4-0.4-0.5-1-0.1-1.4c0,0,0,0,0,0l22.4-25c0.3-0.4,1-0.5,1.4-0.2
		c0.4,0.3,0.5,1,0.2,1.4c0,0,0,0.1-0.1,0.1l-22.4,25C42.2,366.9,41.9,367,41.6,367z"/>
	<path class="st0" d="M67.1,340.7c0,1.7-1.4,3.1-3.1,3.1c-1.7,0-3.1-1.4-3.1-3.1c0-1.7,1.3-3,3-3.1C65.7,337.6,67.1,339,67.1,340.7
		C67.1,340.7,67.1,340.7,67.1,340.7z"/>
	<path class="st0" d="M45,366.3c0,1.7-1.4,3.1-3,3.1s-3.1-1.4-3.1-3s1.4-3.1,3-3.1c0,0,0,0,0,0C43.7,363.2,45,364.6,45,366.3z"/>
	<path class="st0" d="M111.2,341.2c-0.2,0-0.5-0.1-0.7-0.3c-0.4-0.4-0.4-1-0.1-1.4l17.3-19.2c0.4-0.4,1-0.4,1.4,0
		c0.4,0.4,0.4,0.9,0.1,1.3L112,340.9C111.8,341.1,111.5,341.2,111.2,341.2z"/>
	<path class="st0" d="M114.6,340.4c0,1.7-1.4,3.1-3.1,3.1c-1.7,0-3.1-1.4-3.1-3.1c0-1.7,1.4-3.1,3.1-3.1c0,0,0,0,0.1,0
		C113.3,337.4,114.6,338.7,114.6,340.4z"/>
	<path class="st0" d="M253.6,373.1c-0.6,0-1-0.4-1-1c0-0.3,0.1-0.5,0.3-0.7l12.1-13.5c0.4-0.4,1-0.4,1.4-0.1s0.4,1,0.1,1.4l0,0
		l-12.2,13.5C254.1,372.9,253.9,373.1,253.6,373.1z"/>
	<path class="st0" d="M257,372.3c0,1.7-1.4,3.1-3.1,3.1c-1.7,0-3.1-1.4-3.1-3.1c0-1.7,1.4-3.1,3.1-3.1c0,0,0,0,0,0
		c1.7,0,3,1.3,3.1,2.9C257,372.2,257,372.3,257,372.3z"/>
	<path class="st0" d="M330.3,392.4c-0.2,0-0.5-0.1-0.7-0.3c-0.4-0.4-0.4-1-0.1-1.4l22.4-25c0.4-0.4,1-0.5,1.4-0.1c0,0,0,0,0,0
		c0.4,0.4,0.4,1,0.1,1.4L331,392C330.8,392.3,330.6,392.4,330.3,392.4z"/>
	<path class="st0" d="M333.3,391.4c0,1.7-1.4,3.1-3,3.1c-1.7,0-3.1-1.4-3.1-3s1.4-3.1,3-3.1c0,0,0,0,0,0
		C331.9,388.3,333.3,389.7,333.3,391.4z"/>
	<path class="st0" d="M355.7,366.4c0,1.7-1.4,3.1-3.1,3.1s-3.1-1.4-3.1-3.1c0-1.7,1.4-3.1,3.1-3.1l0,0
		C354.4,363.3,355.7,364.7,355.7,366.4C355.7,366.4,355.7,366.4,355.7,366.4z"/>
	<path class="st0" d="M40.6,458c-0.6,0-1-0.4-1-1c0-0.3,0.1-0.5,0.3-0.7l22.4-25c0.3-0.4,1-0.5,1.4-0.2c0.4,0.3,0.5,1,0.2,1.4
		c0,0,0,0.1-0.1,0.1l-22.4,25C41.2,457.9,40.9,458,40.6,458z"/>
	<path class="st0" d="M43.6,457c0,1.7-1.4,3.1-3,3.1c-1.7,0-3.1-1.4-3.1-3c0-1.7,1.4-3.1,3-3.1c0,0,0,0,0,0
		C42.2,454,43.6,455.3,43.6,457z"/>
	<path class="st0" d="M66.1,432c0,1.7-1.3,3.1-3,3.1c-1.7,0-3.1-1.3-3.1-3s1.3-3.1,3-3.1c0,0,0,0,0.1,0C64.7,429,66,430.3,66.1,432
		C66,432,66.1,432,66.1,432z"/>
	<path class="st0" d="M443.5,227.7c-0.2,0-0.5-0.1-0.7-0.3c-0.4-0.4-0.4-1-0.1-1.4l22.4-25c0.4-0.4,1-0.4,1.4,0
		c0.4,0.4,0.4,0.9,0.1,1.3l-22.4,25C444.1,227.6,443.8,227.7,443.5,227.7z"/>
	<path class="st0" d="M446.5,226.7c0,1.7-1.4,3.1-3.1,3.1s-3.1-1.4-3.1-3.1c0-1.7,1.4-3.1,3.1-3.1l0,0
		C445.2,223.7,446.5,225,446.5,226.7C446.5,226.7,446.5,226.7,446.5,226.7z"/>
	<path class="st0" d="M469,201.8c0,1.7-1.4,3.1-3.1,3.1c-1.7,0-3.1-1.4-3.1-3.1s1.4-3.1,3.1-3.1c0,0,0,0,0,0c1.7,0,3,1.3,3.1,2.9
		C469,201.7,469,201.7,469,201.8z"/>
	<path class="st0" d="M421.1,449.4c-0.2,0-0.5-0.1-0.7-0.3c-0.4-0.4-0.4-1-0.1-1.4l22.4-25c0.3-0.4,1-0.5,1.4-0.2
		c0.4,0.3,0.5,1,0.2,1.4c0,0.1-0.1,0.1-0.1,0.2l-22.4,25C421.6,449.2,421.3,449.4,421.1,449.4z"/>
	<path class="st0" d="M446.5,423.2c0,1.7-1.4,3.1-3.1,3.1s-3.1-1.4-3.1-3.1c0-1.7,1.4-3.1,3.1-3.1l0,0
		C445.1,420.2,446.5,421.5,446.5,423.2z"/>
	<path class="st0" d="M424.3,448.3c0,1.7-1.4,3.1-3.1,3.1c-1.7,0-3.1-1.4-3.1-3.1s1.4-3.1,3.1-3.1c0,0,0,0,0,0c1.7,0,3,1.3,3.1,2.9
		C424.3,448.2,424.3,448.2,424.3,448.3z"/>
	<path class="st0" d="M303.9,445.6c-0.6,0-1-0.4-1-1c0-0.3,0.1-0.5,0.3-0.7l22.4-25c0.3-0.4,1-0.5,1.4-0.2c0.4,0.3,0.5,1,0.2,1.4
		c0,0,0,0.1-0.1,0.1l-22.4,25C304.5,445.5,304.2,445.6,303.9,445.6z"/>
	<path class="st0" d="M329.4,419.5c0,1.7-1.4,3.1-3,3.1s-3.1-1.4-3.1-3s1.4-3.1,3-3.1c0,0,0,0,0,0
		C328,416.5,329.4,417.8,329.4,419.5z"/>
	<path class="st0" d="M307.2,444.5c0,1.7-1.3,3.1-3,3.1s-3.1-1.3-3.1-3c0-1.7,1.3-3.1,3-3.1c0,0,0,0,0.1,0
		C305.8,441.5,307.1,442.9,307.2,444.5z"/>
	<path class="st0" d="M411.8,105.8c-0.2,0-0.5-0.1-0.7-0.3c-0.4-0.4-0.5-1-0.1-1.4c0,0,0,0,0,0l22.4-25c0.4-0.4,1-0.5,1.4-0.1
		c0.4,0.4,0.5,1,0.1,1.4l-22.4,25C412.4,105.7,412.1,105.8,411.8,105.8z"/>
	<path class="st0" d="M437.8,79.5c0,1.7-1.3,3.1-3,3.1c-1.7,0-3.1-1.3-3.1-3c0-1.7,1.3-3.1,3-3.1c0,0,0.1,0,0.1,0
		C436.4,76.5,437.7,77.9,437.8,79.5z"/>
	<path class="st0" d="M416.1,104c0,1.7-1.3,3.1-3,3.1c-1.7,0-3.1-1.3-3.1-3c0-1.7,1.3-3.1,3-3.1c0,0,0,0,0.1,0
		C414.7,101,416.1,102.3,416.1,104z"/>
	<path class="st0" d="M268.8,60.3c-0.2,0-0.5-0.1-0.7-0.3c-0.4-0.4-0.4-1-0.1-1.4l22.4-25c0.4-0.4,1-0.5,1.4-0.1
		c0.4,0.4,0.5,1,0.1,1.4l-22.5,25C269.4,60.2,269.1,60.3,268.8,60.3z"/>
	<path class="st0" d="M294.8,34c0,1.7-1.3,3.1-3,3.1s-3.1-1.3-3.1-3c0-1.7,1.3-3.1,3-3.1c0,0,0,0,0.1,0
		C293.4,31,294.8,32.3,294.8,34z"/>
	<path class="st0" d="M273.1,58.5c0,1.7-1.4,3.1-3.1,3.1c-1.7,0-3.1-1.4-3.1-3.1s1.4-3.1,3.1-3.1c0,0,0,0,0,0c1.7,0,3,1.3,3.1,2.9
		C273.1,58.4,273.1,58.4,273.1,58.5z"/>
	<path class="st0" d="M118.4,147.6c-0.2,0-0.5-0.1-0.7-0.3c-0.4-0.4-0.5-1-0.1-1.4c0,0,0,0,0,0l22.4-25c0.4-0.4,1-0.4,1.4,0
		c0.4,0.4,0.4,0.9,0.1,1.3l-22.4,25C119,147.5,118.7,147.6,118.4,147.6z"/>
	<path class="st0" d="M144.4,121.3c0,1.7-1.3,3.1-3,3.1c-1.7,0-3.1-1.3-3.1-3c0-1.7,1.3-3.1,3-3.1c0,0,0,0,0.1,0
		C143,118.3,144.4,119.6,144.4,121.3z"/>
	<path class="st0" d="M122.7,145.8c0,1.7-1.4,3.1-3,3.1s-3.1-1.4-3.1-3c0-1.7,1.4-3.1,3-3.1c0,0,0,0,0,0
		C121.4,142.7,122.7,144.1,122.7,145.8z"/>
	<path class="st0" d="M196.4,429.9c-0.2,0-0.5-0.1-0.7-0.3c-0.4-0.4-0.4-1-0.1-1.4l22.4-25c0.4-0.4,1-0.4,1.4-0.1c0,0,0,0,0,0
		c0.4,0.4,0.4,1,0.1,1.4l-22.4,25C196.9,429.7,196.7,429.9,196.4,429.9z"/>
	<path class="st0" d="M222.4,403.5c0,1.7-1.4,3.1-3.1,3.1s-3.1-1.4-3.1-3.1c0-1.7,1.4-3.1,3.1-3.1l0,0
		C221,400.5,222.4,401.8,222.4,403.5C222.4,403.5,222.4,403.5,222.4,403.5z"/>
	<path class="st0" d="M200.7,428c0,1.7-1.4,3.1-3.1,3.1s-3.1-1.4-3.1-3.1c0-1.7,1.4-3.1,3.1-3.1l0,0
		C199.3,424.9,200.7,426.3,200.7,428z"/>
	<path class="st0" d="M433.1,355.6c-0.6,0-1-0.5-1-1c0-0.2,0.1-0.5,0.3-0.7l22.4-25c0.4-0.4,1-0.5,1.4-0.1c0,0,0,0,0,0
		c0.4,0.4,0.4,1,0.1,1.4l-22.4,25C433.7,355.5,433.4,355.6,433.1,355.6z"/>
	<path class="st0" d="M459.1,329.3c0,1.7-1.3,3.1-3,3.1s-3.1-1.3-3.1-3c0-1.7,1.3-3.1,3-3.1c0,0,0,0,0.1,0
		C457.7,326.3,459.1,327.6,459.1,329.3z"/>
	<path class="st0" d="M437.5,353.7c0,1.7-1.4,3.1-3,3.1c-1.7,0-3.1-1.4-3.1-3s1.4-3.1,3-3.1c0,0,0,0,0,0
		C436.1,350.7,437.5,352,437.5,353.7z"/>
	<path class="st0" d="M293.9,105.9c-0.3,0-0.5-0.1-0.7-0.3c-0.4-0.4-0.4-1,0-1.4l15.6-16.7c0.4-0.4,1-0.4,1.4-0.1
		c0.4,0.4,0.4,1,0,1.4l-15.6,16.7C294.4,105.8,294.1,105.9,293.9,105.9z"/>
	<path class="st0" d="M312.2,88.4c0,1.7-1.3,3.1-3,3.1c-1.7,0-3.1-1.3-3.1-3c0-1.7,1.3-3.1,3-3.1c0,0,0,0,0.1,0
		C310.8,85.4,312.2,86.8,312.2,88.4z"/>
	<path class="st0" d="M356.2,172.1c-0.3,0-0.5-0.1-0.7-0.3c-0.4-0.4-0.4-1,0-1.4l11.8-12.6c0.4-0.4,1-0.4,1.4,0c0.4,0.4,0.4,1,0,1.4
		L357,171.8C356.8,172,356.5,172.1,356.2,172.1z"/>
	<path class="st0" d="M370.7,158.8c0,1.7-1.4,3.1-3.1,3.1c-1.7,0-3.1-1.4-3.1-3.1s1.4-3.1,3.1-3.1c0,0,0,0,0,0
		C369.4,155.7,370.7,157.1,370.7,158.8C370.7,158.7,370.7,158.7,370.7,158.8z"/>
	<path class="st0" d="M195.9,71c-0.6,0-1-0.4-1-1c0-0.2,0.1-0.5,0.2-0.7l22.4-25c0.4-0.4,1-0.4,1.4-0.1c0.4,0.4,0.4,1,0.1,1.4
		l-22.4,25C196.5,70.9,196.2,71,195.9,71z"/>
	<path class="st0" d="M221.9,44.5c0,1.7-1.3,3.1-3,3.1s-3.1-1.3-3.1-3c0-1.7,1.3-3.1,3-3.1c0,0,0.1,0,0.1,0
		C220.6,41.6,221.9,42.9,221.9,44.5z"/>
	<path class="st0" d="M200.1,69.2c0,1.7-1.4,3.1-3.1,3.1c-1.7,0-3.1-1.4-3.1-3.1c0-1.7,1.3-3,3-3.1
		C198.7,66.1,200.1,67.4,200.1,69.2C200.1,69.1,200.1,69.1,200.1,69.2z"/>
	<path class="st0" d="M127.8,456c-0.6,0-1-0.5-1-1c0-0.2,0.1-0.5,0.3-0.7l22.4-25c0.4-0.4,1-0.4,1.4-0.1c0.4,0.4,0.4,1,0.1,1.4
		l-22.4,25C128.3,455.9,128.1,456,127.8,456z"/>
	<path class="st0" d="M153.3,430.2c0,1.7-1.4,3.1-3,3.1c-1.7,0-3.1-1.4-3.1-3c0-1.7,1.4-3.1,3-3.1c0,0,0,0,0,0
		C152,427.1,153.3,428.5,153.3,430.2z"/>
	<path class="st0" d="M131.3,454.3c0,1.7-1.4,3.1-3,3.1c-1.7,0-3.1-1.4-3.1-3c0-1.7,1.4-3.1,3-3.1c0,0,0,0,0,0
		C129.9,451.3,131.3,452.6,131.3,454.3z"/>
	<g>
		<defs>
			<path id="SVGID_1_" d="M380.5,143.6l-63.8-61.9H186.2l-85.4,80.5v162.2l61.3,61.9h152.9l84.2-48.3V221L380.5,143.6z M313.6,289.7
				H186.8v-92.8h126.8L313.6,289.7z"/>
		</defs>
		<clipPath id="SVGID_2_">
			<use xlink:href="#SVGID_1_"  style="overflow:visible;"/>
		</clipPath>
		<g class="st2">
			<path class="st0" d="M386.3,221.6l-7.9-7.1v-24.3c0-0.6-0.3-1.2-0.7-1.7l-25-24.5v-12.8c0-0.6-0.2-1.2-0.7-1.6l-38.2-38.6
				c-0.4-0.4-1-0.7-1.6-0.7h-11.8l-8.2-9c-0.4-0.5-1.1-0.8-1.7-0.8h-18.2c-0.7,0-1.3,0.3-1.8,0.8l-12.3,14.3c-0.4,0.4-0.6,1-0.6,1.5
				v237.2c0,0.6,0.3,1.2,0.7,1.7l10.4,9.9c0.4,0.4,1,0.6,1.6,0.6h31.3c0.6,0,1.1-0.2,1.6-0.6l20-18.3h25c0.6,0,1.2-0.2,1.6-0.7
				l26.1-25.9c0.4-0.4,0.7-1,0.7-1.6v-36.9l10.1-15.4c0.2-0.4,0.4-0.8,0.4-1.3v-42.6C387.1,222.7,386.8,222.1,386.3,221.6z
				 M382.4,265.2l-10,15.4c-0.2,0.4-0.4,0.8-0.4,1.3v36.6L347.3,343h-24.9c-0.6,0-1.1,0.2-1.6,0.6l-20,18.3h-29.5l-9-8.6v-93h31.6
				c1.3,0,2.3-1,2.3-2.3c0-1.3-1-2.3-2.3-2.3c0,0,0,0,0,0h-31.6v-40l11.9,10.9c0.4,0.4,1,0.6,1.6,0.6H299c1.4,2.2,4.2,2.9,6.4,1.5
				c2.2-1.4,2.9-4.2,1.5-6.4c-1.4-2.2-4.2-2.9-6.4-1.5c-0.7,0.4-1.3,1-1.6,1.8h-22.2l-14.4-13.1v-60.6l16.5-17.6h14.9
				c1.3,2.2,4.1,3,6.4,1.7c2.2-1.3,3-4.1,1.7-6.4c-1.3-2.2-4.1-3-6.4-1.7c-0.7,0.4-1.3,1-1.7,1.7h-15.9c-0.6,0-1.3,0.3-1.7,0.7
				L262.3,142v-24l11-12.9h16.1l8.2,9c0.4,0.5,1.1,0.8,1.7,0.8h11.8l36.9,37.2v12.8c0,0.6,0.3,1.2,0.7,1.7l25,24.5v24.4
				c0,0.7,0.3,1.3,0.8,1.7l7.9,7.1L382.4,265.2z M307.4,186.7c-0.1,2.6-2.3,4.5-4.9,4.4c-2.4-0.1-4.3-2-4.4-4.4c0-0.4,0-0.7,0.1-1.1
				l-12.7-11.6c-0.5-0.4-0.8-1.1-0.8-1.7v-15.9c-2.2-1.3-2.9-4.2-1.6-6.4s4.2-2.9,6.4-1.6c2.2,1.3,2.9,4.2,1.6,6.4
				c-0.4,0.7-1,1.3-1.7,1.7v14.7l12,10.9c0.4-0.1,0.9-0.2,1.3-0.2C305.4,182.1,307.4,184.2,307.4,186.7L307.4,186.7z M355.9,241.3
				c0,2.6-2.1,4.6-4.6,4.6c-2.6,0-4.6-2.1-4.6-4.6c0,0,0,0,0,0c0-0.3,0-0.7,0.1-1l-13.1-11.9c-0.5-0.4-0.8-1.1-0.8-1.7l0.2-30.5
				l-12.6-11.5c-0.4,0.1-0.9,0.2-1.3,0.2c-2.6,0-4.7-2-4.8-4.6c0-2.6,2-4.7,4.6-4.8c2.6,0,4.7,2,4.8,4.6c0,0.4,0,0.8-0.1,1.2
				l13.3,12.1c0.5,0.4,0.8,1.1,0.8,1.7l-0.2,30.5l12.4,11.3c2.4-0.8,5,0.5,5.8,3C355.8,240.3,355.9,240.8,355.9,241.3L355.9,241.3z
				 M323.5,251.1v36l12.7,11.6c0.4-0.1,0.9-0.2,1.3-0.2c2.6,0,4.6,2.1,4.6,4.6s-2.1,4.6-4.6,4.6s-4.6-2.1-4.6-4.6
				c0-0.4,0-0.8,0.1-1.1l-13.4-12.2c-0.5-0.4-0.8-1.1-0.8-1.7v-36.8c-2.3-1.2-3.1-4-1.9-6.3s4-3.1,6.3-1.9c2.3,1.2,3.1,4,1.9,6.3
				C324.7,250.1,324.2,250.7,323.5,251.1L323.5,251.1z M313.6,331.1c0.1,2.6-1.9,4.7-4.4,4.9s-4.7-1.9-4.9-4.4c0-0.1,0-0.3,0-0.4
				c0-0.2,0-0.5,0.1-0.7l-12.9-11.7c-0.5-0.4-0.8-1.1-0.8-1.7l0.2-24.8l-13-11.8c-0.4,0.1-0.7,0.1-1.1,0.1c-2.6,0-4.6-2.1-4.6-4.6
				s2.1-4.6,4.6-4.6c2.6,0,4.6,2.1,4.6,4.6c0,0.4-0.1,0.9-0.2,1.3l13.5,12.3c0.5,0.4,0.8,1.1,0.8,1.7l-0.2,24.8l11.9,10.9
				c0.5-0.2,1.1-0.3,1.6-0.3C311.5,326.4,313.6,328.5,313.6,331.1L313.6,331.1L313.6,331.1z M344.2,332.1c-0.1,2.6-2.3,4.5-4.9,4.4
				c-2.4-0.1-4.3-2-4.4-4.4c0-0.3,0-0.7,0.1-1l-19.4-17.8c-0.4,0.2-0.9,0.2-1.4,0.2c-2.6,0-4.6-2.1-4.6-4.6c0-2.6,2.1-4.6,4.6-4.6
				c2.6,0,4.6,2.1,4.6,4.6c0,0,0,0,0,0c0,0.3,0,0.7-0.1,1l19.4,17.8c0.5-0.2,0.9-0.2,1.4-0.2C342.1,327.4,344.2,329.5,344.2,332.1
				L344.2,332.1z M230,101.3c-0.4-0.5-1.1-0.8-1.8-0.8H210c-0.7,0-1.3,0.3-1.7,0.8l-8.2,9h-11.8c-0.6,0-1.2,0.2-1.6,0.7l-38.2,38.6
				c-0.4,0.4-0.7,1-0.7,1.6V164l-25,24.5c-0.4,0.4-0.7,1-0.7,1.7v24.4l-7.9,7.1c-0.5,0.4-0.8,1.1-0.8,1.7V266c0,0.5,0.1,0.9,0.4,1.3
				l10,15.4v36.9c0,0.6,0.2,1.2,0.7,1.6l26.1,25.8c0.4,0.4,1,0.7,1.6,0.7h25l20,18.3c0.4,0.4,1,0.6,1.6,0.6H230
				c0.6,0,1.2-0.2,1.6-0.6l10.4-9.9c0.5-0.4,0.7-1.1,0.7-1.7V117.1c0-0.6-0.2-1.1-0.6-1.5L230,101.3z M229.1,362h-29.5l-20-18.3
				c-0.4-0.4-1-0.6-1.6-0.6h-25l-24.7-24.6v-36.6c0-0.5-0.1-0.9-0.4-1.3l-10-15.4v-40.9l7.9-7.1c0.5-0.4,0.8-1.1,0.8-1.7v-24.4
				l25-24.5c0.4-0.4,0.7-1,0.7-1.7v-12.8l36.9-37.2h11.8c0.7,0,1.3-0.3,1.7-0.8l8.2-9h16.1l11,12.9v24l-13.8-14.7
				c-0.4-0.5-1-0.7-1.7-0.7h-15.9c-1.3-2.2-4.1-3-6.3-1.7c-2.2,1.3-3,4.1-1.7,6.3c1.3,2.2,4.1,3,6.3,1.7c0.7-0.4,1.3-1,1.7-1.7h14.9
				l16.5,17.6v60.6l-14.4,13.1h-22.2c-1.2-2.3-4-3.1-6.3-1.9s-3.1,4-1.9,6.3c1.2,2.3,4,3.1,6.3,1.9c0.7-0.4,1.3-0.9,1.7-1.6h23.2
				c0.6,0,1.1-0.2,1.6-0.6l11.9-10.9v40h-31.6c-1.3,0-2.3,1-2.3,2.3s1,2.3,2.3,2.3h31.6v93L229.1,362z M180.9,289.8L167.4,302
				c0.1,0.4,0.1,0.7,0.1,1.1c0,2.6-2.1,4.6-4.6,4.6s-4.6-2.1-4.6-4.6c0-2.6,2.1-4.6,4.6-4.6c0.4,0,0.9,0.1,1.3,0.2l12.8-11.6v-36
				c-2.2-1.3-2.9-4.2-1.5-6.4s4.2-2.9,6.4-1.5c2.2,1.3,2.9,4.2,1.5,6.4c-0.4,0.7-1,1.3-1.8,1.7v36.9
				C181.6,288.7,181.4,289.4,180.9,289.8L180.9,289.8z M153.8,240.3c0.1,0.3,0.1,0.7,0.1,1c0,2.6-2,4.8-4.6,4.8
				c-2.6,0-4.8-2-4.8-4.6c0-2.6,2-4.8,4.6-4.8c0.5,0,1,0.1,1.5,0.2l12.4-11.3l-0.2-30.5c0-0.7,0.3-1.3,0.8-1.7l13.3-12.1
				c-0.6-2.5,1-5,3.4-5.6c2.5-0.6,5,1,5.6,3.4c0.6,2.5-1,5-3.4,5.6c-0.4,0.1-0.7,0.1-1.1,0.1c-0.4,0-0.9-0.1-1.3-0.2l-12.6,11.5
				l0.2,30.5c0,0.7-0.3,1.3-0.8,1.7L153.8,240.3z M193,186.7c0-2.6,2.1-4.6,4.6-4.6c0.4,0,0.9,0.1,1.3,0.2l12-10.9v-14.7
				c-2.2-1.2-3.1-4.1-1.8-6.3c1.2-2.2,4.1-3.1,6.3-1.8c2.2,1.2,3.1,4.1,1.8,6.3c-0.4,0.7-1,1.3-1.6,1.7v15.9c0,0.7-0.3,1.3-0.8,1.7
				l-12.7,11.6c0.1,0.3,0.1,0.7,0.1,1.1c0,2.6-2.1,4.6-4.6,4.6C195.1,191.4,193,189.3,193,186.7C193,186.7,193,186.7,193,186.7
				L193,186.7z M228.1,275.7c0,2.6-2.1,4.6-4.6,4.6h0c-0.4,0-0.7,0-1.1-0.1l-13,11.8l0.2,24.8c0,0.7-0.3,1.3-0.8,1.7L196,330.3
				c0,0.2,0.1,0.5,0.1,0.7c0,2.6-2.1,4.6-4.6,4.6s-4.6-2.1-4.6-4.6c0-2.6,2.1-4.6,4.6-4.6c0.6,0,1.1,0.1,1.6,0.3l11.9-10.8
				l-0.2-24.8c0-0.7,0.3-1.3,0.8-1.7l13.5-12.3c-0.1-0.4-0.2-0.9-0.2-1.3c0-2.6,2.1-4.6,4.6-4.6
				C226.1,271.1,228.2,273.1,228.1,275.7C228.2,275.7,228.2,275.7,228.1,275.7L228.1,275.7z M186.2,313.5c-0.5,0-0.9-0.1-1.4-0.2
				l-19.4,17.8c0.1,0.3,0.1,0.7,0.1,1c0,2.6-2.1,4.6-4.6,4.6s-4.6-2.1-4.6-4.6c0-2.6,2.1-4.6,4.6-4.6c0.5,0,1,0.1,1.4,0.2l19.4-17.8
				c-0.5-2.5,1-5,3.5-5.5c2.5-0.5,5,1,5.5,3.5c0.5,2.5-1,5-3.5,5.5C186.8,313.5,186.5,313.5,186.2,313.5L186.2,313.5z"/>
		</g>
	</g>
	<path class="st3" d="M249.6,245c-2.9,0-5.3-2.4-5.3-5.3s2.4-5.3,5.3-5.3c2.9,0,5.3,2.4,5.3,5.3c0,0,0,0,0,0
		C254.9,242.6,252.5,245,249.6,245z M249.6,237.8c-1.1,0-1.9,0.9-1.9,1.9s0.9,1.9,1.9,1.9s1.9-0.9,1.9-1.9v0
		C251.5,238.6,250.7,237.8,249.6,237.8C249.6,237.8,249.6,237.8,249.6,237.8L249.6,237.8z"/>
	<path class="st3" d="M266,257c-2.9,0-5.3-2.3-5.3-5.3c0-2.9,2.3-5.3,5.3-5.3c0.9,0,1.7,0.2,2.5,0.6c2.6,1.3,3.6,4.5,2.3,7.1
		c-0.6,1.2-1.7,2.2-3.1,2.6C267.1,256.9,266.6,257,266,257z M266,249.8c-0.2,0-0.4,0-0.6,0.1c-1,0.3-1.6,1.4-1.2,2.4
		c0.3,1,1.4,1.6,2.4,1.2l0,0c1-0.3,1.6-1.4,1.2-2.4C267.6,250.3,266.8,249.8,266,249.8L266,249.8z"/>
	<path class="st3" d="M232.7,257c-2.9,0-5.3-2.4-5.3-5.3c0-2.9,2.4-5.3,5.3-5.3c2.9,0,5.3,2.4,5.3,5.3c0,0,0,0,0,0
		C238,254.6,235.7,257,232.7,257z M232.7,249.8c-1.1,0-1.9,0.9-1.9,1.9c0,1.1,0.9,1.9,1.9,1.9c1.1,0,1.9-0.9,1.9-1.9c0,0,0,0,0,0
		C234.6,250.6,233.8,249.8,232.7,249.8L232.7,249.8z"/>
	<path class="st3" d="M249.5,282c-0.9-0.1-1.6-0.9-1.6-1.8v-36.4c0-0.9,0.7-1.7,1.6-1.8c0.9,0,1.7,0.7,1.8,1.6c0,0,0,0.1,0,0.1v36.6
		C251.3,281.3,250.5,282.1,249.5,282C249.6,282.1,249.5,282.1,249.5,282z"/>
	<path class="st4" d="M224.3,251.7c0-4.7,3.8-8.4,8.4-8.4c1.1,0,2.2,0.2,3.2,0.6c-0.6-3.4-2.2-6.6-4.6-9c-4.9-4.9-12.1-6.1-18.8-3.8
		c-2.3,6.6-1.1,13.9,3.8,18.8c2.3,2.3,5.3,3.9,8.5,4.5C224.5,253.6,224.3,252.6,224.3,251.7z"/>
	<path class="st4" d="M286.5,231.1c-6.6-2.3-13.9-1.1-18.8,3.8c-2.4,2.4-4,5.5-4.6,8.9l0.2-0.1c4.4-1.4,9.2,1,10.6,5.4
		c0.6,1.7,0.6,3.6,0,5.4c3.4-0.6,6.5-2.2,8.9-4.6C287.7,245,288.9,237.8,286.5,231.1z"/>
	<path class="st1" d="M249.6,231.3c3.7,0,6.9,2.4,8,5.9c3.1-3.7,4.9-8.3,4.9-13.1c0-8.4-5.2-15.6-12.9-19.3
		c-7.7,3.7-12.9,11-12.9,19.3c0,4.8,1.7,9.4,4.8,13.1C242.7,233.6,245.9,231.2,249.6,231.3z"/>
	<path class="st3" d="M255.1,278.7c-0.9,0-1.7-0.8-1.7-1.7v-14.7c0-0.4,0.2-0.9,0.5-1.2l7.5-7.5c0.7-0.7,1.7-0.7,2.4,0
		c0.7,0.7,0.7,1.7,0,2.4c0,0,0,0,0,0l-7,7v14C256.8,277.9,256,278.7,255.1,278.7z"/>
	<path class="st3" d="M243.6,278.7c-0.9,0-1.7-0.8-1.7-1.7v-14l-7-7c-0.7-0.7-0.7-1.7,0-2.4c0.7-0.7,1.7-0.7,2.4,0l7.5,7.5
		c0.3,0.3,0.5,0.7,0.5,1.2V277C245.2,277.9,244.5,278.7,243.6,278.7z"/>
</g>
</svg>
